<svg class="rich-terminal" viewBox="0 0 1482 1026.0" xmlns="http://www.w3.org/2000/svg">
    <!-- Generated with Rich https://www.textualize.io -->
    <style>

    @font-face {
        font-family: "Fira Code";
        src: local("FiraCode-Regular"),
                url("https://cdnjs.cloudflare.com/ajax/libs/firacode/6.2.0/woff2/FiraCode-Regular.woff2") format("woff2"),
                url("https://cdnjs.cloudflare.com/ajax/libs/firacode/6.2.0/woff/FiraCode-Regular.woff") format("woff");
        font-style: normal;
        font-weight: 400;
    }
    @font-face {
        font-family: "Fira Code";
        src: local("FiraCode-Bold"),
                url("https://cdnjs.cloudflare.com/ajax/libs/firacode/6.2.0/woff2/FiraCode-Bold.woff2") format("woff2"),
                url("https://cdnjs.cloudflare.com/ajax/libs/firacode/6.2.0/woff/FiraCode-Bold.woff") format("woff");
        font-style: bold;
        font-weight: 700;
    }

    .terminal-3215074656-matrix {
        font-family: Fira Code, monospace;
        font-size: 20px;
        line-height: 24.4px;
        font-variant-east-asian: full-width;
    }

    .terminal-3215074656-title {
        font-size: 18px;
        font-weight: bold;
        font-family: arial;
    }

    .terminal-3215074656-r1 { fill: #c5c8c6 }
.terminal-3215074656-r2 { fill: #e0e0e0 }
.terminal-3215074656-r3 { fill: #121212 }
.terminal-3215074656-r4 { fill: #0178d4 }
.terminal-3215074656-r5 { fill: #191919 }
.terminal-3215074656-r6 { fill: #737373 }
.terminal-3215074656-r7 { fill: #6db2ff }
.terminal-3215074656-r8 { fill: #ddedf9;font-weight: bold }
.terminal-3215074656-r9 { fill: #004295 }
.terminal-3215074656-r10 { fill: #2d2d2d }
.terminal-3215074656-r11 { fill: #e0e0e0;font-weight: bold }
.terminal-3215074656-r12 { fill: #0d0d0d }
    </style>

    <defs>
    <clipPath id="terminal-3215074656-clip-terminal">
      <rect x="0" y="0" width="1463.0" height="975.0" />
    </clipPath>
    <clipPath id="terminal-3215074656-line-0">
    <rect x="0" y="1.5" width="1464" height="24.65"/>
            </clipPath>
<clipPath id="terminal-3215074656-line-1">
    <rect x="0" y="25.9" width="1464" height="24.65"/>
            </clipPath>
<clipPath id="terminal-3215074656-line-2">
    <rect x="0" y="50.3" width="1464" height="24.65"/>
            </clipPath>
<clipPath id="terminal-3215074656-line-3">
    <rect x="0" y="74.7" width="1464" height="24.65"/>
            </clipPath>
<clipPath id="terminal-3215074656-line-4">
    <rect x="0" y="99.1" width="1464" height="24.65"/>
            </clipPath>
<clipPath id="terminal-3215074656-line-5">
    <rect x="0" y="123.5" width="1464" height="24.65"/>
            </clipPath>
<clipPath id="terminal-3215074656-line-6">
    <rect x="0" y="147.9" width="1464" height="24.65"/>
            </clipPath>
<clipPath id="terminal-3215074656-line-7">
    <rect x="0" y="172.3" width="1464" height="24.65"/>
            </clipPath>
<clipPath id="terminal-3215074656-line-8">
    <rect x="0" y="196.7" width="1464" height="24.65"/>
            </clipPath>
<clipPath id="terminal-3215074656-line-9">
    <rect x="0" y="221.1" width="1464" height="24.65"/>
            </clipPath>
<clipPath id="terminal-3215074656-line-10">
    <rect x="0" y="245.5" width="1464" height="24.65"/>
            </clipPath>
<clipPath id="terminal-3215074656-line-11">
    <rect x="0" y="269.9" width="1464" height="24.65"/>
            </clipPath>
<clipPath id="terminal-3215074656-line-12">
    <rect x="0" y="294.3" width="1464" height="24.65"/>
            </clipPath>
<clipPath id="terminal-3215074656-line-13">
    <rect x="0" y="318.7" width="1464" height="24.65"/>
            </clipPath>
<clipPath id="terminal-3215074656-line-14">
    <rect x="0" y="343.1" width="1464" height="24.65"/>
            </clipPath>
<clipPath id="terminal-3215074656-line-15">
    <rect x="0" y="367.5" width="1464" height="24.65"/>
            </clipPath>
<clipPath id="terminal-3215074656-line-16">
    <rect x="0" y="391.9" width="1464" height="24.65"/>
            </clipPath>
<clipPath id="terminal-3215074656-line-17">
    <rect x="0" y="416.3" width="1464" height="24.65"/>
            </clipPath>
<clipPath id="terminal-3215074656-line-18">
    <rect x="0" y="440.7" width="1464" height="24.65"/>
            </clipPath>
<clipPath id="terminal-3215074656-line-19">
    <rect x="0" y="465.1" width="1464" height="24.65"/>
            </clipPath>
<clipPath id="terminal-3215074656-line-20">
    <rect x="0" y="489.5" width="1464" height="24.65"/>
            </clipPath>
<clipPath id="terminal-3215074656-line-21">
    <rect x="0" y="513.9" width="1464" height="24.65"/>
            </clipPath>
<clipPath id="terminal-3215074656-line-22">
    <rect x="0" y="538.3" width="1464" height="24.65"/>
            </clipPath>
<clipPath id="terminal-3215074656-line-23">
    <rect x="0" y="562.7" width="1464" height="24.65"/>
            </clipPath>
<clipPath id="terminal-3215074656-line-24">
    <rect x="0" y="587.1" width="1464" height="24.65"/>
            </clipPath>
<clipPath id="terminal-3215074656-line-25">
    <rect x="0" y="611.5" width="1464" height="24.65"/>
            </clipPath>
<clipPath id="terminal-3215074656-line-26">
    <rect x="0" y="635.9" width="1464" height="24.65"/>
            </clipPath>
<clipPath id="terminal-3215074656-line-27">
    <rect x="0" y="660.3" width="1464" height="24.65"/>
            </clipPath>
<clipPath id="terminal-3215074656-line-28">
    <rect x="0" y="684.7" width="1464" height="24.65"/>
            </clipPath>
<clipPath id="terminal-3215074656-line-29">
    <rect x="0" y="709.1" width="1464" height="24.65"/>
            </clipPath>
<clipPath id="terminal-3215074656-line-30">
    <rect x="0" y="733.5" width="1464" height="24.65"/>
            </clipPath>
<clipPath id="terminal-3215074656-line-31">
    <rect x="0" y="757.9" width="1464" height="24.65"/>
            </clipPath>
<clipPath id="terminal-3215074656-line-32">
    <rect x="0" y="782.3" width="1464" height="24.65"/>
            </clipPath>
<clipPath id="terminal-3215074656-line-33">
    <rect x="0" y="806.7" width="1464" height="24.65"/>
            </clipPath>
<clipPath id="terminal-3215074656-line-34">
    <rect x="0" y="831.1" width="1464" height="24.65"/>
            </clipPath>
<clipPath id="terminal-3215074656-line-35">
    <rect x="0" y="855.5" width="1464" height="24.65"/>
            </clipPath>
<clipPath id="terminal-3215074656-line-36">
    <rect x="0" y="879.9" width="1464" height="24.65"/>
            </clipPath>
<clipPath id="terminal-3215074656-line-37">
    <rect x="0" y="904.3" width="1464" height="24.65"/>
            </clipPath>
<clipPath id="terminal-3215074656-line-38">
    <rect x="0" y="928.7" width="1464" height="24.65"/>
            </clipPath>
    </defs>

    <rect fill="#292929" stroke="rgba(255,255,255,0.35)" stroke-width="1" x="1" y="1" width="1480" height="1024" rx="8"/><text class="terminal-3215074656-title" fill="#c5c8c6" text-anchor="middle" x="740" y="27">SSL&#160;TUI&#160;Hub</text>
            <g transform="translate(26,22)">
            <circle cx="0" cy="0" r="7" fill="#ff5f57"/>
            <circle cx="22" cy="0" r="7" fill="#febc2e"/>
            <circle cx="44" cy="0" r="7" fill="#28c840"/>
            </g>
        
    <g transform="translate(9, 41)" clip-path="url(#terminal-3215074656-clip-terminal)">
    <rect fill="#121212" x="0" y="1.5" width="244" height="24.65" shape-rendering="crispEdges"/><rect fill="#121212" x="244" y="1.5" width="219.6" height="24.65" shape-rendering="crispEdges"/><rect fill="#121212" x="463.6" y="1.5" width="756.4" height="24.65" shape-rendering="crispEdges"/><rect fill="#121212" x="1220" y="1.5" width="244" height="24.65" shape-rendering="crispEdges"/><rect fill="#121212" x="0" y="25.9" width="244" height="24.65" shape-rendering="crispEdges"/><rect fill="#0178d4" x="244" y="25.9" width="12.2" height="24.65" shape-rendering="crispEdges"/><rect fill="#272727" x="256.2" y="25.9" width="951.6" height="24.65" shape-rendering="crispEdges"/><rect fill="#121212" x="1207.8" y="25.9" width="12.2" height="24.65" shape-rendering="crispEdges"/><rect fill="#121212" x="1220" y="25.9" width="244" height="24.65" shape-rendering="crispEdges"/><rect fill="#121212" x="0" y="50.3" width="244" height="24.65" shape-rendering="crispEdges"/><rect fill="#0178d4" x="244" y="50.3" width="12.2" height="24.65" shape-rendering="crispEdges"/><rect fill="#272727" x="256.2" y="50.3" width="24.4" height="24.65" shape-rendering="crispEdges"/><rect fill="#272727" x="280.6" y="50.3" width="219.6" height="24.65" shape-rendering="crispEdges"/><rect fill="#e0e0e0" x="500.2" y="50.3" width="12.2" height="24.65" shape-rendering="crispEdges"/><rect fill="#272727" x="512.4" y="50.3" width="671" height="24.65" shape-rendering="crispEdges"/><rect fill="#272727" x="1183.4" y="50.3" width="24.4" height="24.65" shape-rendering="crispEdges"/><rect fill="#121212" x="1207.8" y="50.3" width="12.2" height="24.65" shape-rendering="crispEdges"/><rect fill="#121212" x="1220" y="50.3" width="244" height="24.65" shape-rendering="crispEdges"/><rect fill="#121212" x="0" y="74.7" width="244" height="24.65" shape-rendering="crispEdges"/><rect fill="#0178d4" x="244" y="74.7" width="12.2" height="24.65" shape-rendering="crispEdges"/><rect fill="#272727" x="256.2" y="74.7" width="951.6" height="24.65" shape-rendering="crispEdges"/><rect fill="#121212" x="1207.8" y="74.7" width="12.2" height="24.65" shape-rendering="crispEdges"/><rect fill="#121212" x="1220" y="74.7" width="244" height="24.65" shape-rendering="crispEdges"/><rect fill="#121212" x="0" y="99.1" width="244" height="24.65" shape-rendering="crispEdges"/><rect fill="#191919" x="244" y="99.1" width="12.2" height="24.65" shape-rendering="crispEdges"/><rect fill="#1e1e1e" x="256.2" y="99.1" width="951.6" height="24.65" shape-rendering="crispEdges"/><rect fill="#121212" x="1207.8" y="99.1" width="12.2" height="24.65" shape-rendering="crispEdges"/><rect fill="#121212" x="1220" y="99.1" width="244" height="24.65" shape-rendering="crispEdges"/><rect fill="#121212" x="0" y="123.5" width="244" height="24.65" shape-rendering="crispEdges"/><rect fill="#191919" x="244" y="123.5" width="12.2" height="24.65" shape-rendering="crispEdges"/><rect fill="#1e1e1e" x="256.2" y="123.5" width="24.4" height="24.65" shape-rendering="crispEdges"/><rect fill="#1e1e1e" x="280.6" y="123.5" width="36.6" height="24.65" shape-rendering="crispEdges"/><rect fill="#1e1e1e" x="317.2" y="123.5" width="866.2" height="24.65" shape-rendering="crispEdges"/><rect fill="#1e1e1e" x="1183.4" y="123.5" width="24.4" height="24.65" shape-rendering="crispEdges"/><rect fill="#121212" x="1207.8" y="123.5" width="12.2" height="24.65" shape-rendering="crispEdges"/><rect fill="#121212" x="1220" y="123.5" width="244" height="24.65" shape-rendering="crispEdges"/><rect fill="#121212" x="0" y="147.9" width="244" height="24.65" shape-rendering="crispEdges"/><rect fill="#191919" x="244" y="147.9" width="12.2" height="24.65" shape-rendering="crispEdges"/><rect fill="#1e1e1e" x="256.2" y="147.9" width="951.6" height="24.65" shape-rendering="crispEdges"/><rect fill="#121212" x="1207.8" y="147.9" width="12.2" height="24.65" shape-rendering="crispEdges"/><rect fill="#121212" x="1220" y="147.9" width="244" height="24.65" shape-rendering="crispEdges"/><rect fill="#121212" x="0" y="172.3" width="244" height="24.65" shape-rendering="crispEdges"/><rect fill="#191919" x="244" y="172.3" width="12.2" height="24.65" shape-rendering="crispEdges"/><rect fill="#1e1e1e" x="256.2" y="172.3" width="951.6" height="24.65" shape-rendering="crispEdges"/><rect fill="#121212" x="1207.8" y="172.3" width="12.2" height="24.65" shape-rendering="crispEdges"/><rect fill="#121212" x="1220" y="172.3" width="244" height="24.65" shape-rendering="crispEdges"/><rect fill="#121212" x="0" y="196.7" width="244" height="24.65" shape-rendering="crispEdges"/><rect fill="#191919" x="244" y="196.7" width="12.2" height="24.65" shape-rendering="crispEdges"/><rect fill="#1e1e1e" x="256.2" y="196.7" width="24.4" height="24.65" shape-rendering="crispEdges"/><rect fill="#1e1e1e" x="280.6" y="196.7" width="134.2" height="24.65" shape-rendering="crispEdges"/><rect fill="#1e1e1e" x="414.8" y="196.7" width="768.6" height="24.65" shape-rendering="crispEdges"/><rect fill="#1e1e1e" x="1183.4" y="196.7" width="24.4" height="24.65" shape-rendering="crispEdges"/><rect fill="#121212" x="1207.8" y="196.7" width="12.2" height="24.65" shape-rendering="crispEdges"/><rect fill="#121212" x="1220" y="196.7" width="244" height="24.65" shape-rendering="crispEdges"/><rect fill="#121212" x="0" y="221.1" width="244" height="24.65" shape-rendering="crispEdges"/><rect fill="#191919" x="244" y="221.1" width="12.2" height="24.65" shape-rendering="crispEdges"/><rect fill="#1e1e1e" x="256.2" y="221.1" width="951.6" height="24.65" shape-rendering="crispEdges"/><rect fill="#121212" x="1207.8" y="221.1" width="12.2" height="24.65" shape-rendering="crispEdges"/><rect fill="#121212" x="1220" y="221.1" width="244" height="24.65" shape-rendering="crispEdges"/><rect fill="#121212" x="0" y="245.5" width="244" height="24.65" shape-rendering="crispEdges"/><rect fill="#191919" x="244" y="245.5" width="12.2" height="24.65" shape-rendering="crispEdges"/><rect fill="#1e1e1e" x="256.2" y="245.5" width="951.6" height="24.65" shape-rendering="crispEdges"/><rect fill="#121212" x="1207.8" y="245.5" width="12.2" height="24.65" shape-rendering="crispEdges"/><rect fill="#121212" x="1220" y="245.5" width="244" height="24.65" shape-rendering="crispEdges"/><rect fill="#121212" x="0" y="269.9" width="244" height="24.65" shape-rendering="crispEdges"/><rect fill="#191919" x="244" y="269.9" width="12.2" height="24.65" shape-rendering="crispEdges"/><rect fill="#1e1e1e" x="256.2" y="269.9" width="24.4" height="24.65" shape-rendering="crispEdges"/><rect fill="#1e1e1e" x="280.6" y="269.9" width="48.8" height="24.65" shape-rendering="crispEdges"/><rect fill="#1e1e1e" x="329.4" y="269.9" width="854" height="24.65" shape-rendering="crispEdges"/><rect fill="#1e1e1e" x="1183.4" y="269.9" width="24.4" height="24.65" shape-rendering="crispEdges"/><rect fill="#121212" x="1207.8" y="269.9" width="12.2" height="24.65" shape-rendering="crispEdges"/><rect fill="#121212" x="1220" y="269.9" width="244" height="24.65" shape-rendering="crispEdges"/><rect fill="#121212" x="0" y="294.3" width="244" height="24.65" shape-rendering="crispEdges"/><rect fill="#191919" x="244" y="294.3" width="12.2" height="24.65" shape-rendering="crispEdges"/><rect fill="#1e1e1e" x="256.2" y="294.3" width="951.6" height="24.65" shape-rendering="crispEdges"/><rect fill="#121212" x="1207.8" y="294.3" width="12.2" height="24.65" shape-rendering="crispEdges"/><rect fill="#121212" x="1220" y="294.3" width="244" height="24.65" shape-rendering="crispEdges"/><rect fill="#121212" x="0" y="318.7" width="244" height="24.65" shape-rendering="crispEdges"/><rect fill="#191919" x="244" y="318.7" width="12.2" height="24.65" shape-rendering="crispEdges"/><rect fill="#1e1e1e" x="256.2" y="318.7" width="951.6" height="24.65" shape-rendering="crispEdges"/><rect fill="#121212" x="1207.8" y="318.7" width="12.2" height="24.65" shape-rendering="crispEdges"/><rect fill="#121212" x="1220" y="318.7" width="244" height="24.65" shape-rendering="crispEdges"/><rect fill="#121212" x="0" y="343.1" width="244" height="24.65" shape-rendering="crispEdges"/><rect fill="#191919" x="244" y="343.1" width="12.2" height="24.65" shape-rendering="crispEdges"/><rect fill="#1e1e1e" x="256.2" y="343.1" width="24.4" height="24.65" shape-rendering="crispEdges"/><rect fill="#1e1e1e" x="280.6" y="343.1" width="195.2" height="24.65" shape-rendering="crispEdges"/><rect fill="#1e1e1e" x="475.8" y="343.1" width="707.6" height="24.65" shape-rendering="crispEdges"/><rect fill="#1e1e1e" x="1183.4" y="343.1" width="24.4" height="24.65" shape-rendering="crispEdges"/><rect fill="#121212" x="1207.8" y="343.1" width="12.2" height="24.65" shape-rendering="crispEdges"/><rect fill="#121212" x="1220" y="343.1" width="244" height="24.65" shape-rendering="crispEdges"/><rect fill="#121212" x="0" y="367.5" width="244" height="24.65" shape-rendering="crispEdges"/><rect fill="#191919" x="244" y="367.5" width="12.2" height="24.65" shape-rendering="crispEdges"/><rect fill="#1e1e1e" x="256.2" y="367.5" width="951.6" height="24.65" shape-rendering="crispEdges"/><rect fill="#121212" x="1207.8" y="367.5" width="12.2" height="24.65" shape-rendering="crispEdges"/><rect fill="#121212" x="1220" y="367.5" width="244" height="24.65" shape-rendering="crispEdges"/><rect fill="#121212" x="0" y="391.9" width="244" height="24.65" shape-rendering="crispEdges"/><rect fill="#191919" x="244" y="391.9" width="12.2" height="24.65" shape-rendering="crispEdges"/><rect fill="#1e1e1e" x="256.2" y="391.9" width="951.6" height="24.65" shape-rendering="crispEdges"/><rect fill="#121212" x="1207.8" y="391.9" width="12.2" height="24.65" shape-rendering="crispEdges"/><rect fill="#121212" x="1220" y="391.9" width="244" height="24.65" shape-rendering="crispEdges"/><rect fill="#121212" x="0" y="416.3" width="244" height="24.65" shape-rendering="crispEdges"/><rect fill="#191919" x="244" y="416.3" width="12.2" height="24.65" shape-rendering="crispEdges"/><rect fill="#1e1e1e" x="256.2" y="416.3" width="24.4" height="24.65" shape-rendering="crispEdges"/><rect fill="#1e1e1e" x="280.6" y="416.3" width="158.6" height="24.65" shape-rendering="crispEdges"/><rect fill="#1e1e1e" x="439.2" y="416.3" width="744.2" height="24.65" shape-rendering="crispEdges"/><rect fill="#1e1e1e" x="1183.4" y="416.3" width="24.4" height="24.65" shape-rendering="crispEdges"/><rect fill="#121212" x="1207.8" y="416.3" width="12.2" height="24.65" shape-rendering="crispEdges"/><rect fill="#121212" x="1220" y="416.3" width="244" height="24.65" shape-rendering="crispEdges"/><rect fill="#121212" x="0" y="440.7" width="244" height="24.65" shape-rendering="crispEdges"/><rect fill="#191919" x="244" y="440.7" width="12.2" height="24.65" shape-rendering="crispEdges"/><rect fill="#1e1e1e" x="256.2" y="440.7" width="951.6" height="24.65" shape-rendering="crispEdges"/><rect fill="#121212" x="1207.8" y="440.7" width="12.2" height="24.65" shape-rendering="crispEdges"/><rect fill="#121212" x="1220" y="440.7" width="244" height="24.65" shape-rendering="crispEdges"/><rect fill="#121212" x="0" y="465.1" width="244" height="24.65" shape-rendering="crispEdges"/><rect fill="#191919" x="244" y="465.1" width="12.2" height="24.65" shape-rendering="crispEdges"/><rect fill="#1e1e1e" x="256.2" y="465.1" width="951.6" height="24.65" shape-rendering="crispEdges"/><rect fill="#121212" x="1207.8" y="465.1" width="12.2" height="24.65" shape-rendering="crispEdges"/><rect fill="#121212" x="1220" y="465.1" width="244" height="24.65" shape-rendering="crispEdges"/><rect fill="#121212" x="0" y="489.5" width="244" height="24.65" shape-rendering="crispEdges"/><rect fill="#191919" x="244" y="489.5" width="12.2" height="24.65" shape-rendering="crispEdges"/><rect fill="#1e1e1e" x="256.2" y="489.5" width="24.4" height="24.65" shape-rendering="crispEdges"/><rect fill="#1e1e1e" x="280.6" y="489.5" width="146.4" height="24.65" shape-rendering="crispEdges"/><rect fill="#1e1e1e" x="427" y="489.5" width="756.4" height="24.65" shape-rendering="crispEdges"/><rect fill="#1e1e1e" x="1183.4" y="489.5" width="24.4" height="24.65" shape-rendering="crispEdges"/><rect fill="#121212" x="1207.8" y="489.5" width="12.2" height="24.65" shape-rendering="crispEdges"/><rect fill="#121212" x="1220" y="489.5" width="244" height="24.65" shape-rendering="crispEdges"/><rect fill="#121212" x="0" y="513.9" width="244" height="24.65" shape-rendering="crispEdges"/><rect fill="#191919" x="244" y="513.9" width="12.2" height="24.65" shape-rendering="crispEdges"/><rect fill="#1e1e1e" x="256.2" y="513.9" width="951.6" height="24.65" shape-rendering="crispEdges"/><rect fill="#121212" x="1207.8" y="513.9" width="12.2" height="24.65" shape-rendering="crispEdges"/><rect fill="#121212" x="1220" y="513.9" width="244" height="24.65" shape-rendering="crispEdges"/><rect fill="#121212" x="0" y="538.3" width="244" height="24.65" shape-rendering="crispEdges"/><rect fill="#191919" x="244" y="538.3" width="12.2" height="24.65" shape-rendering="crispEdges"/><rect fill="#1e1e1e" x="256.2" y="538.3" width="951.6" height="24.65" shape-rendering="crispEdges"/><rect fill="#121212" x="1207.8" y="538.3" width="12.2" height="24.65" shape-rendering="crispEdges"/><rect fill="#121212" x="1220" y="538.3" width="244" height="24.65" shape-rendering="crispEdges"/><rect fill="#121212" x="0" y="562.7" width="244" height="24.65" shape-rendering="crispEdges"/><rect fill="#191919" x="244" y="562.7" width="12.2" height="24.65" shape-rendering="crispEdges"/><rect fill="#1e1e1e" x="256.2" y="562.7" width="24.4" height="24.65" shape-rendering="crispEdges"/><rect fill="#1e1e1e" x="280.6" y="562.7" width="122" height="24.65" shape-rendering="crispEdges"/><rect fill="#1e1e1e" x="402.6" y="562.7" width="780.8" height="24.65" shape-rendering="crispEdges"/><rect fill="#1e1e1e" x="1183.4" y="562.7" width="24.4" height="24.65" shape-rendering="crispEdges"/><rect fill="#121212" x="1207.8" y="562.7" width="12.2" height="24.65" shape-rendering="crispEdges"/><rect fill="#121212" x="1220" y="562.7" width="244" height="24.65" shape-rendering="crispEdges"/><rect fill="#121212" x="0" y="587.1" width="244" height="24.65" shape-rendering="crispEdges"/><rect fill="#191919" x="244" y="587.1" width="12.2" height="24.65" shape-rendering="crispEdges"/><rect fill="#1e1e1e" x="256.2" y="587.1" width="951.6" height="24.65" shape-rendering="crispEdges"/><rect fill="#121212" x="1207.8" y="587.1" width="12.2" height="24.65" shape-rendering="crispEdges"/><rect fill="#121212" x="1220" y="587.1" width="244" height="24.65" shape-rendering="crispEdges"/><rect fill="#121212" x="0" y="611.5" width="244" height="24.65" shape-rendering="crispEdges"/><rect fill="#191919" x="244" y="611.5" width="12.2" height="24.65" shape-rendering="crispEdges"/><rect fill="#1e1e1e" x="256.2" y="611.5" width="951.6" height="24.65" shape-rendering="crispEdges"/><rect fill="#121212" x="1207.8" y="611.5" width="12.2" height="24.65" shape-rendering="crispEdges"/><rect fill="#121212" x="1220" y="611.5" width="244" height="24.65" shape-rendering="crispEdges"/><rect fill="#121212" x="0" y="635.9" width="244" height="24.65" shape-rendering="crispEdges"/><rect fill="#191919" x="244" y="635.9" width="12.2" height="24.65" shape-rendering="crispEdges"/><rect fill="#1e1e1e" x="256.2" y="635.9" width="24.4" height="24.65" shape-rendering="crispEdges"/><rect fill="#1e1e1e" x="280.6" y="635.9" width="134.2" height="24.65" shape-rendering="crispEdges"/><rect fill="#1e1e1e" x="414.8" y="635.9" width="768.6" height="24.65" shape-rendering="crispEdges"/><rect fill="#1e1e1e" x="1183.4" y="635.9" width="24.4" height="24.65" shape-rendering="crispEdges"/><rect fill="#121212" x="1207.8" y="635.9" width="12.2" height="24.65" shape-rendering="crispEdges"/><rect fill="#121212" x="1220" y="635.9" width="244" height="24.65" shape-rendering="crispEdges"/><rect fill="#121212" x="0" y="660.3" width="244" height="24.65" shape-rendering="crispEdges"/><rect fill="#191919" x="244" y="660.3" width="12.2" height="24.65" shape-rendering="crispEdges"/><rect fill="#1e1e1e" x="256.2" y="660.3" width="951.6" height="24.65" shape-rendering="crispEdges"/><rect fill="#121212" x="1207.8" y="660.3" width="12.2" height="24.65" shape-rendering="crispEdges"/><rect fill="#121212" x="1220" y="660.3" width="244" height="24.65" shape-rendering="crispEdges"/><rect fill="#121212" x="0" y="684.7" width="244" height="24.65" shape-rendering="crispEdges"/><rect fill="#191919" x="244" y="684.7" width="12.2" height="24.65" shape-rendering="crispEdges"/><rect fill="#1e1e1e" x="256.2" y="684.7" width="951.6" height="24.65" shape-rendering="crispEdges"/><rect fill="#121212" x="1207.8" y="684.7" width="12.2" height="24.65" shape-rendering="crispEdges"/><rect fill="#121212" x="1220" y="684.7" width="244" height="24.65" shape-rendering="crispEdges"/><rect fill="#121212" x="0" y="709.1" width="244" height="24.65" shape-rendering="crispEdges"/><rect fill="#191919" x="244" y="709.1" width="12.2" height="24.65" shape-rendering="crispEdges"/><rect fill="#1e1e1e" x="256.2" y="709.1" width="24.4" height="24.65" shape-rendering="crispEdges"/><rect fill="#1e1e1e" x="280.6" y="709.1" width="378.2" height="24.65" shape-rendering="crispEdges"/><rect fill="#1e1e1e" x="658.8" y="709.1" width="524.6" height="24.65" shape-rendering="crispEdges"/><rect fill="#1e1e1e" x="1183.4" y="709.1" width="24.4" height="24.65" shape-rendering="crispEdges"/><rect fill="#121212" x="1207.8" y="709.1" width="12.2" height="24.65" shape-rendering="crispEdges"/><rect fill="#121212" x="1220" y="709.1" width="244" height="24.65" shape-rendering="crispEdges"/><rect fill="#121212" x="0" y="733.5" width="244" height="24.65" shape-rendering="crispEdges"/><rect fill="#191919" x="244" y="733.5" width="12.2" height="24.65" shape-rendering="crispEdges"/><rect fill="#1e1e1e" x="256.2" y="733.5" width="951.6" height="24.65" shape-rendering="crispEdges"/><rect fill="#121212" x="1207.8" y="733.5" width="12.2" height="24.65" shape-rendering="crispEdges"/><rect fill="#121212" x="1220" y="733.5" width="244" height="24.65" shape-rendering="crispEdges"/><rect fill="#121212" x="0" y="757.9" width="244" height="24.65" shape-rendering="crispEdges"/><rect fill="#0178d4" x="244" y="757.9" width="976" height="24.65" shape-rendering="crispEdges"/><rect fill="#121212" x="1220" y="757.9" width="244" height="24.65" shape-rendering="crispEdges"/><rect fill="#121212" x="0" y="782.3" width="244" height="24.65" shape-rendering="crispEdges"/><rect fill="#0178d4" x="244" y="782.3" width="439.2" height="24.65" shape-rendering="crispEdges"/><rect fill="#0178d4" x="683.2" y="782.3" width="97.6" height="24.65" shape-rendering="crispEdges"/><rect fill="#0178d4" x="780.8" y="782.3" width="439.2" height="24.65" shape-rendering="crispEdges"/><rect fill="#121212" x="1220" y="782.3" width="244" height="24.65" shape-rendering="crispEdges"/><rect fill="#121212" x="0" y="806.7" width="244" height="24.65" shape-rendering="crispEdges"/><rect fill="#0178d4" x="244" y="806.7" width="976" height="24.65" shape-rendering="crispEdges"/><rect fill="#121212" x="1220" y="806.7" width="244" height="24.65" shape-rendering="crispEdges"/><rect fill="#121212" x="0" y="831.1" width="244" height="24.65" shape-rendering="crispEdges"/><rect fill="#1e1e1e" x="244" y="831.1" width="976" height="24.65" shape-rendering="crispEdges"/><rect fill="#121212" x="1220" y="831.1" width="244" height="24.65" shape-rendering="crispEdges"/><rect fill="#121212" x="0" y="855.5" width="244" height="24.65" shape-rendering="crispEdges"/><rect fill="#1e1e1e" x="244" y="855.5" width="256.2" height="24.65" shape-rendering="crispEdges"/><rect fill="#1e1e1e" x="500.2" y="855.5" width="463.6" height="24.65" shape-rendering="crispEdges"/><rect fill="#1e1e1e" x="963.8" y="855.5" width="256.2" height="24.65" shape-rendering="crispEdges"/><rect fill="#121212" x="1220" y="855.5" width="244" height="24.65" shape-rendering="crispEdges"/><rect fill="#121212" x="0" y="879.9" width="244" height="24.65" shape-rendering="crispEdges"/><rect fill="#1e1e1e" x="244" y="879.9" width="976" height="24.65" shape-rendering="crispEdges"/><rect fill="#121212" x="1220" y="879.9" width="244" height="24.65" shape-rendering="crispEdges"/><rect fill="#121212" x="0" y="904.3" width="244" height="24.65" shape-rendering="crispEdges"/><rect fill="#121212" x="244" y="904.3" width="366" height="24.65" shape-rendering="crispEdges"/><rect fill="#121212" x="610" y="904.3" width="610" height="24.65" shape-rendering="crispEdges"/><rect fill="#121212" x="1220" y="904.3" width="244" height="24.65" shape-rendering="crispEdges"/><rect fill="#121212" x="0" y="928.7" width="1464" height="24.65" shape-rendering="crispEdges"/><rect fill="#121212" x="0" y="953.1" width="1464" height="24.65" shape-rendering="crispEdges"/>
    <g class="terminal-3215074656-matrix">
    <text class="terminal-3215074656-r2" x="244" y="20" textLength="219.6" clip-path="url(#terminal-3215074656-line-0)">Create&#160;Certificate</text><text class="terminal-3215074656-r1" x="1464" y="20" textLength="12.2" clip-path="url(#terminal-3215074656-line-0)">
</text><text class="terminal-3215074656-r3" x="244" y="44.4" textLength="12.2" clip-path="url(#terminal-3215074656-line-1)">▊</text><text class="terminal-3215074656-r4" x="256.2" y="44.4" textLength="951.6" clip-path="url(#terminal-3215074656-line-1)">▔▔▔▔▔▔▔▔▔▔▔▔▔▔▔▔▔▔▔▔▔▔▔▔▔▔▔▔▔▔▔▔▔▔▔▔▔▔▔▔▔▔▔▔▔▔▔▔▔▔▔▔▔▔▔▔▔▔▔▔▔▔▔▔▔▔▔▔▔▔▔▔▔▔▔▔▔▔</text><text class="terminal-3215074656-r4" x="1207.8" y="44.4" textLength="12.2" clip-path="url(#terminal-3215074656-line-1)">▎</text><text class="terminal-3215074656-r1" x="1464" y="44.4" textLength="12.2" clip-path="url(#terminal-3215074656-line-1)">
</text><text class="terminal-3215074656-r3" x="244" y="68.8" textLength="12.2" clip-path="url(#terminal-3215074656-line-2)">▊</text><text class="terminal-3215074656-r2" x="280.6" y="68.8" textLength="219.6" clip-path="url(#terminal-3215074656-line-2)">created.domain.net</text><text class="terminal-3215074656-r4" x="1207.8" y="68.8" textLength="12.2" clip-path="url(#terminal-3215074656-line-2)">▎</text><text class="terminal-3215074656-r1" x="1464" y="68.8" textLength="12.2" clip-path="url(#terminal-3215074656-line-2)">
</text><text class="terminal-3215074656-r3" x="244" y="93.2" textLength="12.2" clip-path="url(#terminal-3215074656-line-3)">▊</text><text class="terminal-3215074656-r4" x="256.2" y="93.2" textLength="951.6" clip-path="url(#terminal-3215074656-line-3)">▁▁▁▁▁▁▁▁▁▁▁▁▁▁▁▁▁▁▁▁▁▁▁▁▁▁▁▁▁▁▁▁▁▁▁▁▁▁▁▁▁▁▁▁▁▁▁▁▁▁▁▁▁▁▁▁▁▁▁▁▁▁▁▁▁▁▁▁▁▁▁▁▁▁▁▁▁▁</text><text class="terminal-3215074656-r4" x="1207.8" y="93.2" textLength="12.2" clip-path="url(#terminal-3215074656-line-3)">▎</text><text class="terminal-3215074656-r1" x="1464" y="93.2" textLength="12.2" clip-path="url(#terminal-3215074656-line-3)">
</text><text class="terminal-3215074656-r3" x="244" y="117.6" textLength="12.2" clip-path="url(#terminal-3215074656-line-4)">▊</text><text class="terminal-3215074656-r5" x="256.2" y="117.6" textLength="951.6" clip-path="url(#terminal-3215074656-line-4)">▔▔▔▔▔▔▔▔▔▔▔▔▔▔▔▔▔▔▔▔▔▔▔▔▔▔▔▔▔▔▔▔▔▔▔▔▔▔▔▔▔▔▔▔▔▔▔▔▔▔▔▔▔▔▔▔▔▔▔▔▔▔▔▔▔▔▔▔▔▔▔▔▔▔▔▔▔▔</text><text class="terminal-3215074656-r5" x="1207.8" y="117.6" textLength="12.2" clip-path="url(#terminal-3215074656-line-4)">▎</text><text class="terminal-3215074656-r1" x="1464" y="117.6" textLength="12.2" clip-path="url(#terminal-3215074656-line-4)">
</text><text class="terminal-3215074656-r3" x="244" y="142" textLength="12.2" clip-path="url(#terminal-3215074656-line-5)">▊</text><text class="terminal-3215074656-r2" x="280.6" y="142" textLength="36.6" clip-path="url(#terminal-3215074656-line-5)">365</text><text class="terminal-3215074656-r5" x="1207.8" y="142" textLength="12.2" clip-path="url(#terminal-3215074656-line-5)">▎</text><text class="terminal-3215074656-r1" x="1464" y="142" textLength="12.2" clip-path="url(#terminal-3215074656-line-5)">
</text><text class="terminal-3215074656-r3" x="244" y="166.4" textLength="12.2" clip-path="url(#terminal-3215074656-line-6)">▊</text><text class="terminal-3215074656-r5" x="256.2" y="166.4" textLength="951.6" clip-path="url(#terminal-3215074656-line-6)">▁▁▁▁▁▁▁▁▁▁▁▁▁▁▁▁▁▁▁▁▁▁▁▁▁▁▁▁▁▁▁▁▁▁▁▁▁▁▁▁▁▁▁▁▁▁▁▁▁▁▁▁▁▁▁▁▁▁▁▁▁▁▁▁▁▁▁▁▁▁▁▁▁▁▁▁▁▁</text><text class="terminal-3215074656-r5" x="1207.8" y="166.4" textLength="12.2" clip-path="url(#terminal-3215074656-line-6)">▎</text><text class="terminal-3215074656-r1" x="1464" y="166.4" textLength="12.2" clip-path="url(#terminal-3215074656-line-6)">
</text><text class="terminal-3215074656-r3" x="244" y="190.8" textLength="12.2" clip-path="url(#terminal-3215074656-line-7)">▊</text><text class="terminal-3215074656-r5" x="256.2" y="190.8" textLength="951.6" clip-path="url(#terminal-3215074656-line-7)">▔▔▔▔▔▔▔▔▔▔▔▔▔▔▔▔▔▔▔▔▔▔▔▔▔▔▔▔▔▔▔▔▔▔▔▔▔▔▔▔▔▔▔▔▔▔▔▔▔▔▔▔▔▔▔▔▔▔▔▔▔▔▔▔▔▔▔▔▔▔▔▔▔▔▔▔▔▔</text><text class="terminal-3215074656-r5" x="1207.8" y="190.8" textLength="12.2" clip-path="url(#terminal-3215074656-line-7)">▎</text><text class="terminal-3215074656-r1" x="1464" y="190.8" textLength="12.2" clip-path="url(#terminal-3215074656-line-7)">
</text><text class="terminal-3215074656-r3" x="244" y="215.2" textLength="12.2" clip-path="url(#terminal-3215074656-line-8)">▊</text><text class="terminal-3215074656-r2" x="280.6" y="215.2" textLength="134.2" clip-path="url(#terminal-3215074656-line-8)">Self-signed</text><text class="terminal-3215074656-r5" x="1207.8" y="215.2" textLength="12.2" clip-path="url(#terminal-3215074656-line-8)">▎</text><text class="terminal-3215074656-r1" x="1464" y="215.2" textLength="12.2" clip-path="url(#terminal-3215074656-line-8)">
</text><text class="terminal-3215074656-r3" x="244" y="239.6" textLength="12.2" clip-path="url(#terminal-3215074656-line-9)">▊</text><text class="terminal-3215074656-r5" x="256.2" y="239.6" textLength="951.6" clip-path="url(#terminal-3215074656-line-9)">▁▁▁▁▁▁▁▁▁▁▁▁▁▁▁▁▁▁▁▁▁▁▁▁▁▁▁▁▁▁▁▁▁▁▁▁▁▁▁▁▁▁▁▁▁▁▁▁▁▁▁▁▁▁▁▁▁▁▁▁▁▁▁▁▁▁▁▁▁▁▁▁▁▁▁▁▁▁</text><text class="terminal-3215074656-r5" x="1207.8" y="239.6" textLength="12.2" clip-path="url(#terminal-3215074656-line-9)">▎</text><text class="terminal-3215074656-r1" x="1464" y="239.6" textLength="12.2" clip-path="url(#terminal-3215074656-line-9)">
</text><text class="terminal-3215074656-r3" x="244" y="264" textLength="12.2" clip-path="url(#terminal-3215074656-line-10)">▊</text><text class="terminal-3215074656-r5" x="256.2" y="264" textLength="951.6" clip-path="url(#terminal-3215074656-line-10)">▔▔▔▔▔▔▔▔▔▔▔▔▔▔▔▔▔▔▔▔▔▔▔▔▔▔▔▔▔▔▔▔▔▔▔▔▔▔▔▔▔▔▔▔▔▔▔▔▔▔▔▔▔▔▔▔▔▔▔▔▔▔▔▔▔▔▔▔▔▔▔▔▔▔▔▔▔▔</text><text class="terminal-3215074656-r5" x="1207.8" y="264" textLength="12.2" clip-path="url(#terminal-3215074656-line-10)">▎</text><text class="terminal-3215074656-r1" x="1464" y="264" textLength="12.2" clip-path="url(#terminal-3215074656-line-10)">
</text><text class="terminal-3215074656-r3" x="244" y="288.4" textLength="12.2" clip-path="url(#terminal-3215074656-line-11)">▊</text><text class="terminal-3215074656-r2" x="280.6" y="288.4" textLength="48.8" clip-path="url(#terminal-3215074656-line-11)">2048</text><text class="terminal-3215074656-r5" x="1207.8" y="288.4" textLength="12.2" clip-path="url(#terminal-3215074656-line-11)">▎</text><text class="terminal-3215074656-r1" x="1464" y="288.4" textLength="12.2" clip-path="url(#terminal-3215074656-line-11)">
</text><text class="terminal-3215074656-r3" x="244" y="312.8" textLength="12.2" clip-path="url(#terminal-3215074656-line-12)">▊</text><text class="terminal-3215074656-r5" x="256.2" y="312.8" textLength="951.6" clip-path="url(#terminal-3215074656-line-12)">▁▁▁▁▁▁▁▁▁▁▁▁▁▁▁▁▁▁▁▁▁▁▁▁▁▁▁▁▁▁▁▁▁▁▁▁▁▁▁▁▁▁▁▁▁▁▁▁▁▁▁▁▁▁▁▁▁▁▁▁▁▁▁▁▁▁▁▁▁▁▁▁▁▁▁▁▁▁</text><text class="terminal-3215074656-r5" x="1207.8" y="312.8" textLength="12.2" clip-path="url(#terminal-3215074656-line-12)">▎</text><text class="terminal-3215074656-r1" x="1464" y="312.8" textLength="12.2" clip-path="url(#terminal-3215074656-line-12)">
</text><text class="terminal-3215074656-r3" x="244" y="337.2" textLength="12.2" clip-path="url(#terminal-3215074656-line-13)">▊</text><text class="terminal-3215074656-r5" x="256.2" y="337.2" textLength="951.6" clip-path="url(#terminal-3215074656-line-13)">▔▔▔▔▔▔▔▔▔▔▔▔▔▔▔▔▔▔▔▔▔▔▔▔▔▔▔▔▔▔▔▔▔▔▔▔▔▔▔▔▔▔▔▔▔▔▔▔▔▔▔▔▔▔▔▔▔▔▔▔▔▔▔▔▔▔▔▔▔▔▔▔▔▔▔▔▔▔</text><text class="terminal-3215074656-r5" x="1207.8" y="337.2" textLength="12.2" clip-path="url(#terminal-3215074656-line-13)">▎</text><text class="terminal-3215074656-r1" x="1464" y="337.2" textLength="12.2" clip-path="url(#terminal-3215074656-line-13)">
</text><text class="terminal-3215074656-r3" x="244" y="361.6" textLength="12.2" clip-path="url(#terminal-3215074656-line-14)">▊</text><text class="terminal-3215074656-r6" x="280.6" y="361.6" textLength="195.2" clip-path="url(#terminal-3215074656-line-14)">Organization&#160;(O)</text><text class="terminal-3215074656-r5" x="1207.8" y="361.6" textLength="12.2" clip-path="url(#terminal-3215074656-line-14)">▎</text><text class="terminal-3215074656-r1" x="1464" y="361.6" textLength="12.2" clip-path="url(#terminal-3215074656-line-14)">
</text><text class="terminal-3215074656-r3" x="244" y="386" textLength="12.2" clip-path="url(#terminal-3215074656-line-15)">▊</text><text class="terminal-3215074656-r5" x="256.2" y="386" textLength="951.6" clip-path="url(#terminal-3215074656-line-15)">▁▁▁▁▁▁▁▁▁▁▁▁▁▁▁▁▁▁▁▁▁▁▁▁▁▁▁▁▁▁▁▁▁▁▁▁▁▁▁▁▁▁▁▁▁▁▁▁▁▁▁▁▁▁▁▁▁▁▁▁▁▁▁▁▁▁▁▁▁▁▁▁▁▁▁▁▁▁</text><text class="terminal-3215074656-r5" x="1207.8" y="386" textLength="12.2" clip-path="url(#terminal-3215074656-line-15)">▎</text><text class="terminal-3215074656-r1" x="1464" y="386" textLength="12.2" clip-path="url(#terminal-3215074656-line-15)">
</text><text class="terminal-3215074656-r3" x="244" y="410.4" textLength="12.2" clip-path="url(#terminal-3215074656-line-16)">▊</text><text class="terminal-3215074656-r5" x="256.2" y="410.4" textLength="951.6" clip-path="url(#terminal-3215074656-line-16)">▔▔▔▔▔▔▔▔▔▔▔▔▔▔▔▔▔▔▔▔▔▔▔▔▔▔▔▔▔▔▔▔▔▔▔▔▔▔▔▔▔▔▔▔▔▔▔▔▔▔▔▔▔▔▔▔▔▔▔▔▔▔▔▔▔▔▔▔▔▔▔▔▔▔▔▔▔▔</text><text class="terminal-3215074656-r5" x="1207.8" y="410.4" textLength="12.2" clip-path="url(#terminal-3215074656-line-16)">▎</text><text class="terminal-3215074656-r1" x="1464" y="410.4" textLength="12.2" clip-path="url(#terminal-3215074656-line-16)">
</text><text class="terminal-3215074656-r3" x="244" y="434.8" textLength="12.2" clip-path="url(#terminal-3215074656-line-17)">▊</text><text class="terminal-3215074656-r6" x="280.6" y="434.8" textLength="158.6" clip-path="url(#terminal-3215074656-line-17)">Org&#160;Unit&#160;(OU)</text><text class="terminal-3215074656-r5" x="1207.8" y="434.8" textLength="12.2" clip-path="url(#terminal-3215074656-line-17)">▎</text><text class="terminal-3215074656-r1" x="1464" y="434.8" textLength="12.2" clip-path="url(#terminal-3215074656-line-17)">
</text><text class="terminal-3215074656-r3" x="244" y="459.2" textLength="12.2" clip-path="url(#terminal-3215074656-line-18)">▊</text><text class="terminal-3215074656-r5" x="256.2" y="459.2" textLength="951.6" clip-path="url(#terminal-3215074656-line-18)">▁▁▁▁▁▁▁▁▁▁▁▁▁▁▁▁▁▁▁▁▁▁▁▁▁▁▁▁▁▁▁▁▁▁▁▁▁▁▁▁▁▁▁▁▁▁▁▁▁▁▁▁▁▁▁▁▁▁▁▁▁▁▁▁▁▁▁▁▁▁▁▁▁▁▁▁▁▁</text><text class="terminal-3215074656-r5" x="1207.8" y="459.2" textLength="12.2" clip-path="url(#terminal-3215074656-line-18)">▎</text><text class="terminal-3215074656-r1" x="1464" y="459.2" textLength="12.2" clip-path="url(#terminal-3215074656-line-18)">
</text><text class="terminal-3215074656-r3" x="244" y="483.6" textLength="12.2" clip-path="url(#terminal-3215074656-line-19)">▊</text><text class="terminal-3215074656-r5" x="256.2" y="483.6" textLength="951.6" clip-path="url(#terminal-3215074656-line-19)">▔▔▔▔▔▔▔▔▔▔▔▔▔▔▔▔▔▔▔▔▔▔▔▔▔▔▔▔▔▔▔▔▔▔▔▔▔▔▔▔▔▔▔▔▔▔▔▔▔▔▔▔▔▔▔▔▔▔▔▔▔▔▔▔▔▔▔▔▔▔▔▔▔▔▔▔▔▔</text><text class="terminal-3215074656-r5" x="1207.8" y="483.6" textLength="12.2" clip-path="url(#terminal-3215074656-line-19)">▎</text><text class="terminal-3215074656-r1" x="1464" y="483.6" textLength="12.2" clip-path="url(#terminal-3215074656-line-19)">
</text><text class="terminal-3215074656-r3" x="244" y="508" textLength="12.2" clip-path="url(#terminal-3215074656-line-20)">▊</text><text class="terminal-3215074656-r6" x="280.6" y="508" textLength="146.4" clip-path="url(#terminal-3215074656-line-20)">Locality&#160;(L)</text><text class="terminal-3215074656-r5" x="1207.8" y="508" textLength="12.2" clip-path="url(#terminal-3215074656-line-20)">▎</text><text class="terminal-3215074656-r1" x="1464" y="508" textLength="12.2" clip-path="url(#terminal-3215074656-line-20)">
</text><text class="terminal-3215074656-r3" x="244" y="532.4" textLength="12.2" clip-path="url(#terminal-3215074656-line-21)">▊</text><text class="terminal-3215074656-r5" x="256.2" y="532.4" textLength="951.6" clip-path="url(#terminal-3215074656-line-21)">▁▁▁▁▁▁▁▁▁▁▁▁▁▁▁▁▁▁▁▁▁▁▁▁▁▁▁▁▁▁▁▁▁▁▁▁▁▁▁▁▁▁▁▁▁▁▁▁▁▁▁▁▁▁▁▁▁▁▁▁▁▁▁▁▁▁▁▁▁▁▁▁▁▁▁▁▁▁</text><text class="terminal-3215074656-r5" x="1207.8" y="532.4" textLength="12.2" clip-path="url(#terminal-3215074656-line-21)">▎</text><text class="terminal-3215074656-r1" x="1464" y="532.4" textLength="12.2" clip-path="url(#terminal-3215074656-line-21)">
</text><text class="terminal-3215074656-r3" x="244" y="556.8" textLength="12.2" clip-path="url(#terminal-3215074656-line-22)">▊</text><text class="terminal-3215074656-r5" x="256.2" y="556.8" textLength="951.6" clip-path="url(#terminal-3215074656-line-22)">▔▔▔▔▔▔▔▔▔▔▔▔▔▔▔▔▔▔▔▔▔▔▔▔▔▔▔▔▔▔▔▔▔▔▔▔▔▔▔▔▔▔▔▔▔▔▔▔▔▔▔▔▔▔▔▔▔▔▔▔▔▔▔▔▔▔▔▔▔▔▔▔▔▔▔▔▔▔</text><text class="terminal-3215074656-r5" x="1207.8" y="556.8" textLength="12.2" clip-path="url(#terminal-3215074656-line-22)">▎</text><text class="terminal-3215074656-r1" x="1464" y="556.8" textLength="12.2" clip-path="url(#terminal-3215074656-line-22)">
</text><text class="terminal-3215074656-r3" x="244" y="581.2" textLength="12.2" clip-path="url(#terminal-3215074656-line-23)">▊</text><text class="terminal-3215074656-r6" x="280.6" y="581.2" textLength="122" clip-path="url(#terminal-3215074656-line-23)">State&#160;(ST)</text><text class="terminal-3215074656-r5" x="1207.8" y="581.2" textLength="12.2" clip-path="url(#terminal-3215074656-line-23)">▎</text><text class="terminal-3215074656-r1" x="1464" y="581.2" textLength="12.2" clip-path="url(#terminal-3215074656-line-23)">
</text><text class="terminal-3215074656-r3" x="244" y="605.6" textLength="12.2" clip-path="url(#terminal-3215074656-line-24)">▊</text><text class="terminal-3215074656-r5" x="256.2" y="605.6" textLength="951.6" clip-path="url(#terminal-3215074656-line-24)">▁▁▁▁▁▁▁▁▁▁▁▁▁▁▁▁▁▁▁▁▁▁▁▁▁▁▁▁▁▁▁▁▁▁▁▁▁▁▁▁▁▁▁▁▁▁▁▁▁▁▁▁▁▁▁▁▁▁▁▁▁▁▁▁▁▁▁▁▁▁▁▁▁▁▁▁▁▁</text><text class="terminal-3215074656-r5" x="1207.8" y="605.6" textLength="12.2" clip-path="url(#terminal-3215074656-line-24)">▎</text><text class="terminal-3215074656-r1" x="1464" y="605.6" textLength="12.2" clip-path="url(#terminal-3215074656-line-24)">
</text><text class="terminal-3215074656-r3" x="244" y="630" textLength="12.2" clip-path="url(#terminal-3215074656-line-25)">▊</text><text class="terminal-3215074656-r5" x="256.2" y="630" textLength="951.6" clip-path="url(#terminal-3215074656-line-25)">▔▔▔▔▔▔▔▔▔▔▔▔▔▔▔▔▔▔▔▔▔▔▔▔▔▔▔▔▔▔▔▔▔▔▔▔▔▔▔▔▔▔▔▔▔▔▔▔▔▔▔▔▔▔▔▔▔▔▔▔▔▔▔▔▔▔▔▔▔▔▔▔▔▔▔▔▔▔</text><text class="terminal-3215074656-r5" x="1207.8" y="630" textLength="12.2" clip-path="url(#terminal-3215074656-line-25)">▎</text><text class="terminal-3215074656-r1" x="1464" y="630" textLength="12.2" clip-path="url(#terminal-3215074656-line-25)">
</text><text class="terminal-3215074656-r3" x="244" y="654.4" textLength="12.2" clip-path="url(#terminal-3215074656-line-26)">▊</text><text class="terminal-3215074656-r6" x="280.6" y="654.4" textLength="134.2" clip-path="url(#terminal-3215074656-line-26)">Country&#160;(C)</text><text class="terminal-3215074656-r5" x="1207.8" y="654.4" textLength="12.2" clip-path="url(#terminal-3215074656-line-26)">▎</text><text class="terminal-3215074656-r1" x="1464" y="654.4" textLength="12.2" clip-path="url(#terminal-3215074656-line-26)">
</text><text class="terminal-3215074656-r3" x="244" y="678.8" textLength="12.2" clip-path="url(#terminal-3215074656-line-27)">▊</text><text class="terminal-3215074656-r5" x="256.2" y="678.8" textLength="951.6" clip-path="url(#terminal-3215074656-line-27)">▁▁▁▁▁▁▁▁▁▁▁▁▁▁▁▁▁▁▁▁▁▁▁▁▁▁▁▁▁▁▁▁▁▁▁▁▁▁▁▁▁▁▁▁▁▁▁▁▁▁▁▁▁▁▁▁▁▁▁▁▁▁▁▁▁▁▁▁▁▁▁▁▁▁▁▁▁▁</text><text class="terminal-3215074656-r5" x="1207.8" y="678.8" textLength="12.2" clip-path="url(#terminal-3215074656-line-27)">▎</text><text class="terminal-3215074656-r1" x="1464" y="678.8" textLength="12.2" clip-path="url(#terminal-3215074656-line-27)">
</text><text class="terminal-3215074656-r3" x="244" y="703.2" textLength="12.2" clip-path="url(#terminal-3215074656-line-28)">▊</text><text class="terminal-3215074656-r5" x="256.2" y="703.2" textLength="951.6" clip-path="url(#terminal-3215074656-line-28)">▔▔▔▔▔▔▔▔▔▔▔▔▔▔▔▔▔▔▔▔▔▔▔▔▔▔▔▔▔▔▔▔▔▔▔▔▔▔▔▔▔▔▔▔▔▔▔▔▔▔▔▔▔▔▔▔▔▔▔▔▔▔▔▔▔▔▔▔▔▔▔▔▔▔▔▔▔▔</text><text class="terminal-3215074656-r5" x="1207.8" y="703.2" textLength="12.2" clip-path="url(#terminal-3215074656-line-28)">▎</text><text class="terminal-3215074656-r1" x="1464" y="703.2" textLength="12.2" clip-path="url(#terminal-3215074656-line-28)">
</text><text class="terminal-3215074656-r3" x="244" y="727.6" textLength="12.2" clip-path="url(#terminal-3215074656-line-29)">▊</text><text class="terminal-3215074656-r6" x="280.6" y="727.6" textLength="378.2" clip-path="url(#terminal-3215074656-line-29)">SANs&#160;comma-separated&#160;(optional)</text><text class="terminal-3215074656-r5" x="1207.8" y="727.6" textLength="12.2" clip-path="url(#terminal-3215074656-line-29)">▎</text><text class="terminal-3215074656-r1" x="1464" y="727.6" textLength="12.2" clip-path="url(#terminal-3215074656-line-29)">
</text><text class="terminal-3215074656-r3" x="244" y="752" textLength="12.2" clip-path="url(#terminal-3215074656-line-30)">▊</text><text class="terminal-3215074656-r5" x="256.2" y="752" textLength="951.6" clip-path="url(#terminal-3215074656-line-30)">▁▁▁▁▁▁▁▁▁▁▁▁▁▁▁▁▁▁▁▁▁▁▁▁▁▁▁▁▁▁▁▁▁▁▁▁▁▁▁▁▁▁▁▁▁▁▁▁▁▁▁▁▁▁▁▁▁▁▁▁▁▁▁▁▁▁▁▁▁▁▁▁▁▁▁▁▁▁</text><text class="terminal-3215074656-r5" x="1207.8" y="752" textLength="12.2" clip-path="url(#terminal-3215074656-line-30)">▎</text><text class="terminal-3215074656-r1" x="1464" y="752" textLength="12.2" clip-path="url(#terminal-3215074656-line-30)">
</text><text class="terminal-3215074656-r7" x="244" y="776.4" textLength="976" clip-path="url(#terminal-3215074656-line-31)">▔▔▔▔▔▔▔▔▔▔▔▔▔▔▔▔▔▔▔▔▔▔▔▔▔▔▔▔▔▔▔▔▔▔▔▔▔▔▔▔▔▔▔▔▔▔▔▔▔▔▔▔▔▔▔▔▔▔▔▔▔▔▔▔▔▔▔▔▔▔▔▔▔▔▔▔▔▔▔▔</text><text class="terminal-3215074656-r1" x="1464" y="776.4" textLength="12.2" clip-path="url(#terminal-3215074656-line-31)">
</text><text class="terminal-3215074656-r8" x="683.2" y="800.8" textLength="97.6" clip-path="url(#terminal-3215074656-line-32)">&#160;Create&#160;</text><text class="terminal-3215074656-r1" x="1464" y="800.8" textLength="12.2" clip-path="url(#terminal-3215074656-line-32)">
</text><text class="terminal-3215074656-r9" x="244" y="825.2" textLength="976" clip-path="url(#terminal-3215074656-line-33)">▁▁▁▁▁▁▁▁▁▁▁▁▁▁▁▁▁▁▁▁▁▁▁▁▁▁▁▁▁▁▁▁▁▁▁▁▁▁▁▁▁▁▁▁▁▁▁▁▁▁▁▁▁▁▁▁▁▁▁▁▁▁▁▁▁▁▁▁▁▁▁▁▁▁▁▁▁▁▁▁</text><text class="terminal-3215074656-r1" x="1464" y="825.2" textLength="12.2" clip-path="url(#terminal-3215074656-line-33)">
</text><text class="terminal-3215074656-r10" x="244" y="849.6" textLength="976" clip-path="url(#terminal-3215074656-line-34)">▔▔▔▔▔▔▔▔▔▔▔▔▔▔▔▔▔▔▔▔▔▔▔▔▔▔▔▔▔▔▔▔▔▔▔▔▔▔▔▔▔▔▔▔▔▔▔▔▔▔▔▔▔▔▔▔▔▔▔▔▔▔▔▔▔▔▔▔▔▔▔▔▔▔▔▔▔▔▔▔</text><text class="terminal-3215074656-r1" x="1464" y="849.6" textLength="12.2" clip-path="url(#terminal-3215074656-line-34)">
</text><text class="terminal-3215074656-r11" x="500.2" y="874" textLength="463.6" clip-path="url(#terminal-3215074656-line-35)">&#160;Save&#160;current&#160;fields&#160;as&#160;defaults&#160;(F2)&#160;</text><text class="terminal-3215074656-r1" x="1464" y="874" textLength="12.2" clip-path="url(#terminal-3215074656-line-35)">
</text><text class="terminal-3215074656-r12" x="244" y="898.4" textLength="976" clip-path="url(#terminal-3215074656-line-36)">▁▁▁▁▁▁▁▁▁▁▁▁▁▁▁▁▁▁▁▁▁▁▁▁▁▁▁▁▁▁▁▁▁▁▁▁▁▁▁▁▁▁▁▁▁▁▁▁▁▁▁▁▁▁▁▁▁▁▁▁▁▁▁▁▁▁▁▁▁▁▁▁▁▁▁▁▁▁▁▁</text><text class="terminal-3215074656-r1" x="1464" y="898.4" textLength="12.2" clip-path="url(#terminal-3215074656-line-36)">
</text><text class="terminal-3215074656-r2" x="244" y="922.8" textLength="366" clip-path="url(#terminal-3215074656-line-37)">Created&#160;certificate&#160;created001</text><text class="terminal-3215074656-r1" x="1464" y="922.8" textLength="12.2" clip-path="url(#terminal-3215074656-line-37)">
</text><text class="terminal-3215074656-r1" x="1464" y="947.2" textLength="12.2" clip-path="url(#terminal-3215074656-line-38)">
</text>
    </g>
    </g>
</svg>
