<svg class="rich-terminal" viewBox="0 0 1482 1026.0" xmlns="http://www.w3.org/2000/svg">
    <!-- Generated with Rich https://www.textualize.io -->
    <style>

    @font-face {
        font-family: "Fira Code";
        src: local("FiraCode-Regular"),
                url("https://cdnjs.cloudflare.com/ajax/libs/firacode/6.2.0/woff2/FiraCode-Regular.woff2") format("woff2"),
                url("https://cdnjs.cloudflare.com/ajax/libs/firacode/6.2.0/woff/FiraCode-Regular.woff") format("woff");
        font-style: normal;
        font-weight: 400;
    }
    @font-face {
        font-family: "Fira Code";
        src: local("FiraCode-Bold"),
                url("https://cdnjs.cloudflare.com/ajax/libs/firacode/6.2.0/woff2/FiraCode-Bold.woff2") format("woff2"),
                url("https://cdnjs.cloudflare.com/ajax/libs/firacode/6.2.0/woff/FiraCode-Bold.woff") format("woff");
        font-style: bold;
        font-weight: 700;
    }

    .terminal-703257477-matrix {
        font-family: Fira Code, monospace;
        font-size: 20px;
        line-height: 24.4px;
        font-variant-east-asian: full-width;
    }

    .terminal-703257477-title {
        font-size: 18px;
        font-weight: bold;
        font-family: arial;
    }

    .terminal-703257477-r1 { fill: #c5c8c6 }
.terminal-703257477-r2 { fill: #e0e0e0 }
.terminal-703257477-r3 { fill: #121212 }
.terminal-703257477-r4 { fill: #0178d4 }
.terminal-703257477-r5 { fill: #191919 }
.terminal-703257477-r6 { fill: #737373 }
.terminal-703257477-r7 { fill: #6db2ff }
.terminal-703257477-r8 { fill: #ddedf9;font-weight: bold }
.terminal-703257477-r9 { fill: #004295 }
    </style>

    <defs>
    <clipPath id="terminal-703257477-clip-terminal">
      <rect x="0" y="0" width="1463.0" height="975.0" />
    </clipPath>
    <clipPath id="terminal-703257477-line-0">
    <rect x="0" y="1.5" width="1464" height="24.65"/>
            </clipPath>
<clipPath id="terminal-703257477-line-1">
    <rect x="0" y="25.9" width="1464" height="24.65"/>
            </clipPath>
<clipPath id="terminal-703257477-line-2">
    <rect x="0" y="50.3" width="1464" height="24.65"/>
            </clipPath>
<clipPath id="terminal-703257477-line-3">
    <rect x="0" y="74.7" width="1464" height="24.65"/>
            </clipPath>
<clipPath id="terminal-703257477-line-4">
    <rect x="0" y="99.1" width="1464" height="24.65"/>
            </clipPath>
<clipPath id="terminal-703257477-line-5">
    <rect x="0" y="123.5" width="1464" height="24.65"/>
            </clipPath>
<clipPath id="terminal-703257477-line-6">
    <rect x="0" y="147.9" width="1464" height="24.65"/>
            </clipPath>
<clipPath id="terminal-703257477-line-7">
    <rect x="0" y="172.3" width="1464" height="24.65"/>
            </clipPath>
<clipPath id="terminal-703257477-line-8">
    <rect x="0" y="196.7" width="1464" height="24.65"/>
            </clipPath>
<clipPath id="terminal-703257477-line-9">
    <rect x="0" y="221.1" width="1464" height="24.65"/>
            </clipPath>
<clipPath id="terminal-703257477-line-10">
    <rect x="0" y="245.5" width="1464" height="24.65"/>
            </clipPath>
<clipPath id="terminal-703257477-line-11">
    <rect x="0" y="269.9" width="1464" height="24.65"/>
            </clipPath>
<clipPath id="terminal-703257477-line-12">
    <rect x="0" y="294.3" width="1464" height="24.65"/>
            </clipPath>
<clipPath id="terminal-703257477-line-13">
    <rect x="0" y="318.7" width="1464" height="24.65"/>
            </clipPath>
<clipPath id="terminal-703257477-line-14">
    <rect x="0" y="343.1" width="1464" height="24.65"/>
            </clipPath>
<clipPath id="terminal-703257477-line-15">
    <rect x="0" y="367.5" width="1464" height="24.65"/>
            </clipPath>
<clipPath id="terminal-703257477-line-16">
    <rect x="0" y="391.9" width="1464" height="24.65"/>
            </clipPath>
<clipPath id="terminal-703257477-line-17">
    <rect x="0" y="416.3" width="1464" height="24.65"/>
            </clipPath>
<clipPath id="terminal-703257477-line-18">
    <rect x="0" y="440.7" width="1464" height="24.65"/>
            </clipPath>
<clipPath id="terminal-703257477-line-19">
    <rect x="0" y="465.1" width="1464" height="24.65"/>
            </clipPath>
<clipPath id="terminal-703257477-line-20">
    <rect x="0" y="489.5" width="1464" height="24.65"/>
            </clipPath>
<clipPath id="terminal-703257477-line-21">
    <rect x="0" y="513.9" width="1464" height="24.65"/>
            </clipPath>
<clipPath id="terminal-703257477-line-22">
    <rect x="0" y="538.3" width="1464" height="24.65"/>
            </clipPath>
<clipPath id="terminal-703257477-line-23">
    <rect x="0" y="562.7" width="1464" height="24.65"/>
            </clipPath>
<clipPath id="terminal-703257477-line-24">
    <rect x="0" y="587.1" width="1464" height="24.65"/>
            </clipPath>
<clipPath id="terminal-703257477-line-25">
    <rect x="0" y="611.5" width="1464" height="24.65"/>
            </clipPath>
<clipPath id="terminal-703257477-line-26">
    <rect x="0" y="635.9" width="1464" height="24.65"/>
            </clipPath>
<clipPath id="terminal-703257477-line-27">
    <rect x="0" y="660.3" width="1464" height="24.65"/>
            </clipPath>
<clipPath id="terminal-703257477-line-28">
    <rect x="0" y="684.7" width="1464" height="24.65"/>
            </clipPath>
<clipPath id="terminal-703257477-line-29">
    <rect x="0" y="709.1" width="1464" height="24.65"/>
            </clipPath>
<clipPath id="terminal-703257477-line-30">
    <rect x="0" y="733.5" width="1464" height="24.65"/>
            </clipPath>
<clipPath id="terminal-703257477-line-31">
    <rect x="0" y="757.9" width="1464" height="24.65"/>
            </clipPath>
<clipPath id="terminal-703257477-line-32">
    <rect x="0" y="782.3" width="1464" height="24.65"/>
            </clipPath>
<clipPath id="terminal-703257477-line-33">
    <rect x="0" y="806.7" width="1464" height="24.65"/>
            </clipPath>
<clipPath id="terminal-703257477-line-34">
    <rect x="0" y="831.1" width="1464" height="24.65"/>
            </clipPath>
<clipPath id="terminal-703257477-line-35">
    <rect x="0" y="855.5" width="1464" height="24.65"/>
            </clipPath>
<clipPath id="terminal-703257477-line-36">
    <rect x="0" y="879.9" width="1464" height="24.65"/>
            </clipPath>
<clipPath id="terminal-703257477-line-37">
    <rect x="0" y="904.3" width="1464" height="24.65"/>
            </clipPath>
<clipPath id="terminal-703257477-line-38">
    <rect x="0" y="928.7" width="1464" height="24.65"/>
            </clipPath>
    </defs>

    <rect fill="#292929" stroke="rgba(255,255,255,0.35)" stroke-width="1" x="1" y="1" width="1480" height="1024" rx="8"/><text class="terminal-703257477-title" fill="#c5c8c6" text-anchor="middle" x="740" y="27">SSL&#160;TUI&#160;Hub</text>
            <g transform="translate(26,22)">
            <circle cx="0" cy="0" r="7" fill="#ff5f57"/>
            <circle cx="22" cy="0" r="7" fill="#febc2e"/>
            <circle cx="44" cy="0" r="7" fill="#28c840"/>
            </g>
        
    <g transform="translate(9, 41)" clip-path="url(#terminal-703257477-clip-terminal)">
    <rect fill="#121212" x="0" y="1.5" width="244" height="24.65" shape-rendering="crispEdges"/><rect fill="#121212" x="244" y="1.5" width="549" height="24.65" shape-rendering="crispEdges"/><rect fill="#121212" x="793" y="1.5" width="427" height="24.65" shape-rendering="crispEdges"/><rect fill="#121212" x="1220" y="1.5" width="244" height="24.65" shape-rendering="crispEdges"/><rect fill="#121212" x="0" y="25.9" width="244" height="24.65" shape-rendering="crispEdges"/><rect fill="#0178d4" x="244" y="25.9" width="12.2" height="24.65" shape-rendering="crispEdges"/><rect fill="#272727" x="256.2" y="25.9" width="951.6" height="24.65" shape-rendering="crispEdges"/><rect fill="#121212" x="1207.8" y="25.9" width="12.2" height="24.65" shape-rendering="crispEdges"/><rect fill="#121212" x="1220" y="25.9" width="244" height="24.65" shape-rendering="crispEdges"/><rect fill="#121212" x="0" y="50.3" width="244" height="24.65" shape-rendering="crispEdges"/><rect fill="#0178d4" x="244" y="50.3" width="12.2" height="24.65" shape-rendering="crispEdges"/><rect fill="#272727" x="256.2" y="50.3" width="24.4" height="24.65" shape-rendering="crispEdges"/><rect fill="#272727" x="280.6" y="50.3" width="36.6" height="24.65" shape-rendering="crispEdges"/><rect fill="#272727" x="317.2" y="50.3" width="866.2" height="24.65" shape-rendering="crispEdges"/><rect fill="#272727" x="1183.4" y="50.3" width="24.4" height="24.65" shape-rendering="crispEdges"/><rect fill="#121212" x="1207.8" y="50.3" width="12.2" height="24.65" shape-rendering="crispEdges"/><rect fill="#121212" x="1220" y="50.3" width="244" height="24.65" shape-rendering="crispEdges"/><rect fill="#121212" x="0" y="74.7" width="244" height="24.65" shape-rendering="crispEdges"/><rect fill="#0178d4" x="244" y="74.7" width="12.2" height="24.65" shape-rendering="crispEdges"/><rect fill="#272727" x="256.2" y="74.7" width="951.6" height="24.65" shape-rendering="crispEdges"/><rect fill="#121212" x="1207.8" y="74.7" width="12.2" height="24.65" shape-rendering="crispEdges"/><rect fill="#121212" x="1220" y="74.7" width="244" height="24.65" shape-rendering="crispEdges"/><rect fill="#121212" x="0" y="99.1" width="244" height="24.65" shape-rendering="crispEdges"/><rect fill="#191919" x="244" y="99.1" width="12.2" height="24.65" shape-rendering="crispEdges"/><rect fill="#1e1e1e" x="256.2" y="99.1" width="951.6" height="24.65" shape-rendering="crispEdges"/><rect fill="#121212" x="1207.8" y="99.1" width="12.2" height="24.65" shape-rendering="crispEdges"/><rect fill="#121212" x="1220" y="99.1" width="244" height="24.65" shape-rendering="crispEdges"/><rect fill="#121212" x="0" y="123.5" width="244" height="24.65" shape-rendering="crispEdges"/><rect fill="#191919" x="244" y="123.5" width="12.2" height="24.65" shape-rendering="crispEdges"/><rect fill="#1e1e1e" x="256.2" y="123.5" width="24.4" height="24.65" shape-rendering="crispEdges"/><rect fill="#1e1e1e" x="280.6" y="123.5" width="378.2" height="24.65" shape-rendering="crispEdges"/><rect fill="#1e1e1e" x="658.8" y="123.5" width="524.6" height="24.65" shape-rendering="crispEdges"/><rect fill="#1e1e1e" x="1183.4" y="123.5" width="24.4" height="24.65" shape-rendering="crispEdges"/><rect fill="#121212" x="1207.8" y="123.5" width="12.2" height="24.65" shape-rendering="crispEdges"/><rect fill="#121212" x="1220" y="123.5" width="244" height="24.65" shape-rendering="crispEdges"/><rect fill="#121212" x="0" y="147.9" width="244" height="24.65" shape-rendering="crispEdges"/><rect fill="#191919" x="244" y="147.9" width="12.2" height="24.65" shape-rendering="crispEdges"/><rect fill="#1e1e1e" x="256.2" y="147.9" width="951.6" height="24.65" shape-rendering="crispEdges"/><rect fill="#121212" x="1207.8" y="147.9" width="12.2" height="24.65" shape-rendering="crispEdges"/><rect fill="#121212" x="1220" y="147.9" width="244" height="24.65" shape-rendering="crispEdges"/><rect fill="#121212" x="0" y="172.3" width="244" height="24.65" shape-rendering="crispEdges"/><rect fill="#191919" x="244" y="172.3" width="12.2" height="24.65" shape-rendering="crispEdges"/><rect fill="#1e1e1e" x="256.2" y="172.3" width="951.6" height="24.65" shape-rendering="crispEdges"/><rect fill="#121212" x="1207.8" y="172.3" width="12.2" height="24.65" shape-rendering="crispEdges"/><rect fill="#121212" x="1220" y="172.3" width="244" height="24.65" shape-rendering="crispEdges"/><rect fill="#121212" x="0" y="196.7" width="244" height="24.65" shape-rendering="crispEdges"/><rect fill="#191919" x="244" y="196.7" width="12.2" height="24.65" shape-rendering="crispEdges"/><rect fill="#1e1e1e" x="256.2" y="196.7" width="24.4" height="24.65" shape-rendering="crispEdges"/><rect fill="#1e1e1e" x="280.6" y="196.7" width="317.2" height="24.65" shape-rendering="crispEdges"/><rect fill="#1e1e1e" x="597.8" y="196.7" width="585.6" height="24.65" shape-rendering="crispEdges"/><rect fill="#1e1e1e" x="1183.4" y="196.7" width="24.4" height="24.65" shape-rendering="crispEdges"/><rect fill="#121212" x="1207.8" y="196.7" width="12.2" height="24.65" shape-rendering="crispEdges"/><rect fill="#121212" x="1220" y="196.7" width="244" height="24.65" shape-rendering="crispEdges"/><rect fill="#121212" x="0" y="221.1" width="244" height="24.65" shape-rendering="crispEdges"/><rect fill="#191919" x="244" y="221.1" width="12.2" height="24.65" shape-rendering="crispEdges"/><rect fill="#1e1e1e" x="256.2" y="221.1" width="951.6" height="24.65" shape-rendering="crispEdges"/><rect fill="#121212" x="1207.8" y="221.1" width="12.2" height="24.65" shape-rendering="crispEdges"/><rect fill="#121212" x="1220" y="221.1" width="244" height="24.65" shape-rendering="crispEdges"/><rect fill="#121212" x="0" y="245.5" width="244" height="24.65" shape-rendering="crispEdges"/><rect fill="#191919" x="244" y="245.5" width="12.2" height="24.65" shape-rendering="crispEdges"/><rect fill="#1e1e1e" x="256.2" y="245.5" width="951.6" height="24.65" shape-rendering="crispEdges"/><rect fill="#121212" x="1207.8" y="245.5" width="12.2" height="24.65" shape-rendering="crispEdges"/><rect fill="#121212" x="1220" y="245.5" width="244" height="24.65" shape-rendering="crispEdges"/><rect fill="#121212" x="0" y="269.9" width="244" height="24.65" shape-rendering="crispEdges"/><rect fill="#191919" x="244" y="269.9" width="12.2" height="24.65" shape-rendering="crispEdges"/><rect fill="#1e1e1e" x="256.2" y="269.9" width="24.4" height="24.65" shape-rendering="crispEdges"/><rect fill="#1e1e1e" x="280.6" y="269.9" width="329.4" height="24.65" shape-rendering="crispEdges"/><rect fill="#1e1e1e" x="610" y="269.9" width="573.4" height="24.65" shape-rendering="crispEdges"/><rect fill="#1e1e1e" x="1183.4" y="269.9" width="24.4" height="24.65" shape-rendering="crispEdges"/><rect fill="#121212" x="1207.8" y="269.9" width="12.2" height="24.65" shape-rendering="crispEdges"/><rect fill="#121212" x="1220" y="269.9" width="244" height="24.65" shape-rendering="crispEdges"/><rect fill="#121212" x="0" y="294.3" width="244" height="24.65" shape-rendering="crispEdges"/><rect fill="#191919" x="244" y="294.3" width="12.2" height="24.65" shape-rendering="crispEdges"/><rect fill="#1e1e1e" x="256.2" y="294.3" width="951.6" height="24.65" shape-rendering="crispEdges"/><rect fill="#121212" x="1207.8" y="294.3" width="12.2" height="24.65" shape-rendering="crispEdges"/><rect fill="#121212" x="1220" y="294.3" width="244" height="24.65" shape-rendering="crispEdges"/><rect fill="#121212" x="0" y="318.7" width="244" height="24.65" shape-rendering="crispEdges"/><rect fill="#0178d4" x="244" y="318.7" width="976" height="24.65" shape-rendering="crispEdges"/><rect fill="#121212" x="1220" y="318.7" width="244" height="24.65" shape-rendering="crispEdges"/><rect fill="#121212" x="0" y="343.1" width="244" height="24.65" shape-rendering="crispEdges"/><rect fill="#0178d4" x="244" y="343.1" width="439.2" height="24.65" shape-rendering="crispEdges"/><rect fill="#0178d4" x="683.2" y="343.1" width="97.6" height="24.65" shape-rendering="crispEdges"/><rect fill="#0178d4" x="780.8" y="343.1" width="439.2" height="24.65" shape-rendering="crispEdges"/><rect fill="#121212" x="1220" y="343.1" width="244" height="24.65" shape-rendering="crispEdges"/><rect fill="#121212" x="0" y="367.5" width="244" height="24.65" shape-rendering="crispEdges"/><rect fill="#0178d4" x="244" y="367.5" width="976" height="24.65" shape-rendering="crispEdges"/><rect fill="#121212" x="1220" y="367.5" width="244" height="24.65" shape-rendering="crispEdges"/><rect fill="#121212" x="0" y="391.9" width="244" height="24.65" shape-rendering="crispEdges"/><rect fill="#121212" x="244" y="391.9" width="439.2" height="24.65" shape-rendering="crispEdges"/><rect fill="#121212" x="683.2" y="391.9" width="536.8" height="24.65" shape-rendering="crispEdges"/><rect fill="#121212" x="1220" y="391.9" width="244" height="24.65" shape-rendering="crispEdges"/><rect fill="#121212" x="0" y="416.3" width="1464" height="24.65" shape-rendering="crispEdges"/><rect fill="#121212" x="0" y="440.7" width="1464" height="24.65" shape-rendering="crispEdges"/><rect fill="#121212" x="0" y="465.1" width="1464" height="24.65" shape-rendering="crispEdges"/><rect fill="#121212" x="0" y="489.5" width="1464" height="24.65" shape-rendering="crispEdges"/><rect fill="#121212" x="0" y="513.9" width="1464" height="24.65" shape-rendering="crispEdges"/><rect fill="#121212" x="0" y="538.3" width="1464" height="24.65" shape-rendering="crispEdges"/><rect fill="#121212" x="0" y="562.7" width="1464" height="24.65" shape-rendering="crispEdges"/><rect fill="#121212" x="0" y="587.1" width="1464" height="24.65" shape-rendering="crispEdges"/><rect fill="#121212" x="0" y="611.5" width="1464" height="24.65" shape-rendering="crispEdges"/><rect fill="#121212" x="0" y="635.9" width="1464" height="24.65" shape-rendering="crispEdges"/><rect fill="#121212" x="0" y="660.3" width="1464" height="24.65" shape-rendering="crispEdges"/><rect fill="#121212" x="0" y="684.7" width="1464" height="24.65" shape-rendering="crispEdges"/><rect fill="#121212" x="0" y="709.1" width="1464" height="24.65" shape-rendering="crispEdges"/><rect fill="#121212" x="0" y="733.5" width="1464" height="24.65" shape-rendering="crispEdges"/><rect fill="#121212" x="0" y="757.9" width="1464" height="24.65" shape-rendering="crispEdges"/><rect fill="#121212" x="0" y="782.3" width="1464" height="24.65" shape-rendering="crispEdges"/><rect fill="#121212" x="0" y="806.7" width="1464" height="24.65" shape-rendering="crispEdges"/><rect fill="#121212" x="0" y="831.1" width="1464" height="24.65" shape-rendering="crispEdges"/><rect fill="#121212" x="0" y="855.5" width="1464" height="24.65" shape-rendering="crispEdges"/><rect fill="#121212" x="0" y="879.9" width="1464" height="24.65" shape-rendering="crispEdges"/><rect fill="#121212" x="0" y="904.3" width="1464" height="24.65" shape-rendering="crispEdges"/><rect fill="#121212" x="0" y="928.7" width="1464" height="24.65" shape-rendering="crispEdges"/><rect fill="#121212" x="0" y="953.1" width="1464" height="24.65" shape-rendering="crispEdges"/>
    <g class="terminal-703257477-matrix">
    <text class="terminal-703257477-r2" x="244" y="20" textLength="549" clip-path="url(#terminal-703257477-line-0)">Export&#160;certificate:&#160;demo.domain.net&#160;(demo001)</text><text class="terminal-703257477-r1" x="1464" y="20" textLength="12.2" clip-path="url(#terminal-703257477-line-0)">
</text><text class="terminal-703257477-r3" x="244" y="44.4" textLength="12.2" clip-path="url(#terminal-703257477-line-1)">▊</text><text class="terminal-703257477-r4" x="256.2" y="44.4" textLength="951.6" clip-path="url(#terminal-703257477-line-1)">▔▔▔▔▔▔▔▔▔▔▔▔▔▔▔▔▔▔▔▔▔▔▔▔▔▔▔▔▔▔▔▔▔▔▔▔▔▔▔▔▔▔▔▔▔▔▔▔▔▔▔▔▔▔▔▔▔▔▔▔▔▔▔▔▔▔▔▔▔▔▔▔▔▔▔▔▔▔</text><text class="terminal-703257477-r4" x="1207.8" y="44.4" textLength="12.2" clip-path="url(#terminal-703257477-line-1)">▎</text><text class="terminal-703257477-r1" x="1464" y="44.4" textLength="12.2" clip-path="url(#terminal-703257477-line-1)">
</text><text class="terminal-703257477-r3" x="244" y="68.8" textLength="12.2" clip-path="url(#terminal-703257477-line-2)">▊</text><text class="terminal-703257477-r2" x="280.6" y="68.8" textLength="36.6" clip-path="url(#terminal-703257477-line-2)">PEM</text><text class="terminal-703257477-r4" x="1207.8" y="68.8" textLength="12.2" clip-path="url(#terminal-703257477-line-2)">▎</text><text class="terminal-703257477-r1" x="1464" y="68.8" textLength="12.2" clip-path="url(#terminal-703257477-line-2)">
</text><text class="terminal-703257477-r3" x="244" y="93.2" textLength="12.2" clip-path="url(#terminal-703257477-line-3)">▊</text><text class="terminal-703257477-r4" x="256.2" y="93.2" textLength="951.6" clip-path="url(#terminal-703257477-line-3)">▁▁▁▁▁▁▁▁▁▁▁▁▁▁▁▁▁▁▁▁▁▁▁▁▁▁▁▁▁▁▁▁▁▁▁▁▁▁▁▁▁▁▁▁▁▁▁▁▁▁▁▁▁▁▁▁▁▁▁▁▁▁▁▁▁▁▁▁▁▁▁▁▁▁▁▁▁▁</text><text class="terminal-703257477-r4" x="1207.8" y="93.2" textLength="12.2" clip-path="url(#terminal-703257477-line-3)">▎</text><text class="terminal-703257477-r1" x="1464" y="93.2" textLength="12.2" clip-path="url(#terminal-703257477-line-3)">
</text><text class="terminal-703257477-r3" x="244" y="117.6" textLength="12.2" clip-path="url(#terminal-703257477-line-4)">▊</text><text class="terminal-703257477-r5" x="256.2" y="117.6" textLength="951.6" clip-path="url(#terminal-703257477-line-4)">▔▔▔▔▔▔▔▔▔▔▔▔▔▔▔▔▔▔▔▔▔▔▔▔▔▔▔▔▔▔▔▔▔▔▔▔▔▔▔▔▔▔▔▔▔▔▔▔▔▔▔▔▔▔▔▔▔▔▔▔▔▔▔▔▔▔▔▔▔▔▔▔▔▔▔▔▔▔</text><text class="terminal-703257477-r5" x="1207.8" y="117.6" textLength="12.2" clip-path="url(#terminal-703257477-line-4)">▎</text><text class="terminal-703257477-r1" x="1464" y="117.6" textLength="12.2" clip-path="url(#terminal-703257477-line-4)">
</text><text class="terminal-703257477-r3" x="244" y="142" textLength="12.2" clip-path="url(#terminal-703257477-line-5)">▊</text><text class="terminal-703257477-r2" x="280.6" y="142" textLength="378.2" clip-path="url(#terminal-703257477-line-5)">/home/luke/scratch/sslt/exports</text><text class="terminal-703257477-r5" x="1207.8" y="142" textLength="12.2" clip-path="url(#terminal-703257477-line-5)">▎</text><text class="terminal-703257477-r1" x="1464" y="142" textLength="12.2" clip-path="url(#terminal-703257477-line-5)">
</text><text class="terminal-703257477-r3" x="244" y="166.4" textLength="12.2" clip-path="url(#terminal-703257477-line-6)">▊</text><text class="terminal-703257477-r5" x="256.2" y="166.4" textLength="951.6" clip-path="url(#terminal-703257477-line-6)">▁▁▁▁▁▁▁▁▁▁▁▁▁▁▁▁▁▁▁▁▁▁▁▁▁▁▁▁▁▁▁▁▁▁▁▁▁▁▁▁▁▁▁▁▁▁▁▁▁▁▁▁▁▁▁▁▁▁▁▁▁▁▁▁▁▁▁▁▁▁▁▁▁▁▁▁▁▁</text><text class="terminal-703257477-r5" x="1207.8" y="166.4" textLength="12.2" clip-path="url(#terminal-703257477-line-6)">▎</text><text class="terminal-703257477-r1" x="1464" y="166.4" textLength="12.2" clip-path="url(#terminal-703257477-line-6)">
</text><text class="terminal-703257477-r3" x="244" y="190.8" textLength="12.2" clip-path="url(#terminal-703257477-line-7)">▊</text><text class="terminal-703257477-r5" x="256.2" y="190.8" textLength="951.6" clip-path="url(#terminal-703257477-line-7)">▔▔▔▔▔▔▔▔▔▔▔▔▔▔▔▔▔▔▔▔▔▔▔▔▔▔▔▔▔▔▔▔▔▔▔▔▔▔▔▔▔▔▔▔▔▔▔▔▔▔▔▔▔▔▔▔▔▔▔▔▔▔▔▔▔▔▔▔▔▔▔▔▔▔▔▔▔▔</text><text class="terminal-703257477-r5" x="1207.8" y="190.8" textLength="12.2" clip-path="url(#terminal-703257477-line-7)">▎</text><text class="terminal-703257477-r1" x="1464" y="190.8" textLength="12.2" clip-path="url(#terminal-703257477-line-7)">
</text><text class="terminal-703257477-r3" x="244" y="215.2" textLength="12.2" clip-path="url(#terminal-703257477-line-8)">▊</text><text class="terminal-703257477-r6" x="280.6" y="215.2" textLength="317.2" clip-path="url(#terminal-703257477-line-8)">Output&#160;filename&#160;(optional)</text><text class="terminal-703257477-r5" x="1207.8" y="215.2" textLength="12.2" clip-path="url(#terminal-703257477-line-8)">▎</text><text class="terminal-703257477-r1" x="1464" y="215.2" textLength="12.2" clip-path="url(#terminal-703257477-line-8)">
</text><text class="terminal-703257477-r3" x="244" y="239.6" textLength="12.2" clip-path="url(#terminal-703257477-line-9)">▊</text><text class="terminal-703257477-r5" x="256.2" y="239.6" textLength="951.6" clip-path="url(#terminal-703257477-line-9)">▁▁▁▁▁▁▁▁▁▁▁▁▁▁▁▁▁▁▁▁▁▁▁▁▁▁▁▁▁▁▁▁▁▁▁▁▁▁▁▁▁▁▁▁▁▁▁▁▁▁▁▁▁▁▁▁▁▁▁▁▁▁▁▁▁▁▁▁▁▁▁▁▁▁▁▁▁▁</text><text class="terminal-703257477-r5" x="1207.8" y="239.6" textLength="12.2" clip-path="url(#terminal-703257477-line-9)">▎</text><text class="terminal-703257477-r1" x="1464" y="239.6" textLength="12.2" clip-path="url(#terminal-703257477-line-9)">
</text><text class="terminal-703257477-r3" x="244" y="264" textLength="12.2" clip-path="url(#terminal-703257477-line-10)">▊</text><text class="terminal-703257477-r5" x="256.2" y="264" textLength="951.6" clip-path="url(#terminal-703257477-line-10)">▔▔▔▔▔▔▔▔▔▔▔▔▔▔▔▔▔▔▔▔▔▔▔▔▔▔▔▔▔▔▔▔▔▔▔▔▔▔▔▔▔▔▔▔▔▔▔▔▔▔▔▔▔▔▔▔▔▔▔▔▔▔▔▔▔▔▔▔▔▔▔▔▔▔▔▔▔▔</text><text class="terminal-703257477-r5" x="1207.8" y="264" textLength="12.2" clip-path="url(#terminal-703257477-line-10)">▎</text><text class="terminal-703257477-r1" x="1464" y="264" textLength="12.2" clip-path="url(#terminal-703257477-line-10)">
</text><text class="terminal-703257477-r3" x="244" y="288.4" textLength="12.2" clip-path="url(#terminal-703257477-line-11)">▊</text><text class="terminal-703257477-r6" x="280.6" y="288.4" textLength="329.4" clip-path="url(#terminal-703257477-line-11)">PKCS#12&#160;password&#160;(optional)</text><text class="terminal-703257477-r5" x="1207.8" y="288.4" textLength="12.2" clip-path="url(#terminal-703257477-line-11)">▎</text><text class="terminal-703257477-r1" x="1464" y="288.4" textLength="12.2" clip-path="url(#terminal-703257477-line-11)">
</text><text class="terminal-703257477-r3" x="244" y="312.8" textLength="12.2" clip-path="url(#terminal-703257477-line-12)">▊</text><text class="terminal-703257477-r5" x="256.2" y="312.8" textLength="951.6" clip-path="url(#terminal-703257477-line-12)">▁▁▁▁▁▁▁▁▁▁▁▁▁▁▁▁▁▁▁▁▁▁▁▁▁▁▁▁▁▁▁▁▁▁▁▁▁▁▁▁▁▁▁▁▁▁▁▁▁▁▁▁▁▁▁▁▁▁▁▁▁▁▁▁▁▁▁▁▁▁▁▁▁▁▁▁▁▁</text><text class="terminal-703257477-r5" x="1207.8" y="312.8" textLength="12.2" clip-path="url(#terminal-703257477-line-12)">▎</text><text class="terminal-703257477-r1" x="1464" y="312.8" textLength="12.2" clip-path="url(#terminal-703257477-line-12)">
</text><text class="terminal-703257477-r7" x="244" y="337.2" textLength="976" clip-path="url(#terminal-703257477-line-13)">▔▔▔▔▔▔▔▔▔▔▔▔▔▔▔▔▔▔▔▔▔▔▔▔▔▔▔▔▔▔▔▔▔▔▔▔▔▔▔▔▔▔▔▔▔▔▔▔▔▔▔▔▔▔▔▔▔▔▔▔▔▔▔▔▔▔▔▔▔▔▔▔▔▔▔▔▔▔▔▔</text><text class="terminal-703257477-r1" x="1464" y="337.2" textLength="12.2" clip-path="url(#terminal-703257477-line-13)">
</text><text class="terminal-703257477-r8" x="683.2" y="361.6" textLength="97.6" clip-path="url(#terminal-703257477-line-14)">&#160;Export&#160;</text><text class="terminal-703257477-r1" x="1464" y="361.6" textLength="12.2" clip-path="url(#terminal-703257477-line-14)">
</text><text class="terminal-703257477-r9" x="244" y="386" textLength="976" clip-path="url(#terminal-703257477-line-15)">▁▁▁▁▁▁▁▁▁▁▁▁▁▁▁▁▁▁▁▁▁▁▁▁▁▁▁▁▁▁▁▁▁▁▁▁▁▁▁▁▁▁▁▁▁▁▁▁▁▁▁▁▁▁▁▁▁▁▁▁▁▁▁▁▁▁▁▁▁▁▁▁▁▁▁▁▁▁▁▁</text><text class="terminal-703257477-r1" x="1464" y="386" textLength="12.2" clip-path="url(#terminal-703257477-line-15)">
</text><text class="terminal-703257477-r2" x="244" y="410.4" textLength="439.2" clip-path="url(#terminal-703257477-line-16)">Exported&#160;to&#160;/tmp/exports/demo001.pem</text><text class="terminal-703257477-r1" x="1464" y="410.4" textLength="12.2" clip-path="url(#terminal-703257477-line-16)">
</text><text class="terminal-703257477-r1" x="1464" y="434.8" textLength="12.2" clip-path="url(#terminal-703257477-line-17)">
</text><text class="terminal-703257477-r1" x="1464" y="459.2" textLength="12.2" clip-path="url(#terminal-703257477-line-18)">
</text><text class="terminal-703257477-r1" x="1464" y="483.6" textLength="12.2" clip-path="url(#terminal-703257477-line-19)">
</text><text class="terminal-703257477-r1" x="1464" y="508" textLength="12.2" clip-path="url(#terminal-703257477-line-20)">
</text><text class="terminal-703257477-r1" x="1464" y="532.4" textLength="12.2" clip-path="url(#terminal-703257477-line-21)">
</text><text class="terminal-703257477-r1" x="1464" y="556.8" textLength="12.2" clip-path="url(#terminal-703257477-line-22)">
</text><text class="terminal-703257477-r1" x="1464" y="581.2" textLength="12.2" clip-path="url(#terminal-703257477-line-23)">
</text><text class="terminal-703257477-r1" x="1464" y="605.6" textLength="12.2" clip-path="url(#terminal-703257477-line-24)">
</text><text class="terminal-703257477-r1" x="1464" y="630" textLength="12.2" clip-path="url(#terminal-703257477-line-25)">
</text><text class="terminal-703257477-r1" x="1464" y="654.4" textLength="12.2" clip-path="url(#terminal-703257477-line-26)">
</text><text class="terminal-703257477-r1" x="1464" y="678.8" textLength="12.2" clip-path="url(#terminal-703257477-line-27)">
</text><text class="terminal-703257477-r1" x="1464" y="703.2" textLength="12.2" clip-path="url(#terminal-703257477-line-28)">
</text><text class="terminal-703257477-r1" x="1464" y="727.6" textLength="12.2" clip-path="url(#terminal-703257477-line-29)">
</text><text class="terminal-703257477-r1" x="1464" y="752" textLength="12.2" clip-path="url(#terminal-703257477-line-30)">
</text><text class="terminal-703257477-r1" x="1464" y="776.4" textLength="12.2" clip-path="url(#terminal-703257477-line-31)">
</text><text class="terminal-703257477-r1" x="1464" y="800.8" textLength="12.2" clip-path="url(#terminal-703257477-line-32)">
</text><text class="terminal-703257477-r1" x="1464" y="825.2" textLength="12.2" clip-path="url(#terminal-703257477-line-33)">
</text><text class="terminal-703257477-r1" x="1464" y="849.6" textLength="12.2" clip-path="url(#terminal-703257477-line-34)">
</text><text class="terminal-703257477-r1" x="1464" y="874" textLength="12.2" clip-path="url(#terminal-703257477-line-35)">
</text><text class="terminal-703257477-r1" x="1464" y="898.4" textLength="12.2" clip-path="url(#terminal-703257477-line-36)">
</text><text class="terminal-703257477-r1" x="1464" y="922.8" textLength="12.2" clip-path="url(#terminal-703257477-line-37)">
</text><text class="terminal-703257477-r1" x="1464" y="947.2" textLength="12.2" clip-path="url(#terminal-703257477-line-38)">
</text>
    </g>
    </g>
</svg>
