<svg class="rich-terminal" viewBox="0 0 1482 1026.0" xmlns="http://www.w3.org/2000/svg">
    <!-- Generated with Rich https://www.textualize.io -->
    <style>

    @font-face {
        font-family: "Fira Code";
        src: local("FiraCode-Regular"),
                url("https://cdnjs.cloudflare.com/ajax/libs/firacode/6.2.0/woff2/FiraCode-Regular.woff2") format("woff2"),
                url("https://cdnjs.cloudflare.com/ajax/libs/firacode/6.2.0/woff/FiraCode-Regular.woff") format("woff");
        font-style: normal;
        font-weight: 400;
    }
    @font-face {
        font-family: "Fira Code";
        src: local("FiraCode-Bold"),
                url("https://cdnjs.cloudflare.com/ajax/libs/firacode/6.2.0/woff2/FiraCode-Bold.woff2") format("woff2"),
                url("https://cdnjs.cloudflare.com/ajax/libs/firacode/6.2.0/woff/FiraCode-Bold.woff") format("woff");
        font-style: bold;
        font-weight: 700;
    }

    .terminal-796529634-matrix {
        font-family: Fira Code, monospace;
        font-size: 20px;
        line-height: 24.4px;
        font-variant-east-asian: full-width;
    }

    .terminal-796529634-title {
        font-size: 18px;
        font-weight: bold;
        font-family: arial;
    }

    .terminal-796529634-r1 { fill: #c5c8c6 }
.terminal-796529634-r2 { fill: #e0e0e0 }
.terminal-796529634-r3 { fill: #ddedf9;font-weight: bold }
.terminal-796529634-r4 { fill: #2d2d2d }
.terminal-796529634-r5 { fill: #e0e0e0;font-weight: bold }
.terminal-796529634-r6 { fill: #0d0d0d }
    </style>

    <defs>
    <clipPath id="terminal-796529634-clip-terminal">
      <rect x="0" y="0" width="1463.0" height="975.0" />
    </clipPath>
    <clipPath id="terminal-796529634-line-0">
    <rect x="0" y="1.5" width="1464" height="24.65"/>
            </clipPath>
<clipPath id="terminal-796529634-line-1">
    <rect x="0" y="25.9" width="1464" height="24.65"/>
            </clipPath>
<clipPath id="terminal-796529634-line-2">
    <rect x="0" y="50.3" width="1464" height="24.65"/>
            </clipPath>
<clipPath id="terminal-796529634-line-3">
    <rect x="0" y="74.7" width="1464" height="24.65"/>
            </clipPath>
<clipPath id="terminal-796529634-line-4">
    <rect x="0" y="99.1" width="1464" height="24.65"/>
            </clipPath>
<clipPath id="terminal-796529634-line-5">
    <rect x="0" y="123.5" width="1464" height="24.65"/>
            </clipPath>
<clipPath id="terminal-796529634-line-6">
    <rect x="0" y="147.9" width="1464" height="24.65"/>
            </clipPath>
<clipPath id="terminal-796529634-line-7">
    <rect x="0" y="172.3" width="1464" height="24.65"/>
            </clipPath>
<clipPath id="terminal-796529634-line-8">
    <rect x="0" y="196.7" width="1464" height="24.65"/>
            </clipPath>
<clipPath id="terminal-796529634-line-9">
    <rect x="0" y="221.1" width="1464" height="24.65"/>
            </clipPath>
<clipPath id="terminal-796529634-line-10">
    <rect x="0" y="245.5" width="1464" height="24.65"/>
            </clipPath>
<clipPath id="terminal-796529634-line-11">
    <rect x="0" y="269.9" width="1464" height="24.65"/>
            </clipPath>
<clipPath id="terminal-796529634-line-12">
    <rect x="0" y="294.3" width="1464" height="24.65"/>
            </clipPath>
<clipPath id="terminal-796529634-line-13">
    <rect x="0" y="318.7" width="1464" height="24.65"/>
            </clipPath>
<clipPath id="terminal-796529634-line-14">
    <rect x="0" y="343.1" width="1464" height="24.65"/>
            </clipPath>
<clipPath id="terminal-796529634-line-15">
    <rect x="0" y="367.5" width="1464" height="24.65"/>
            </clipPath>
<clipPath id="terminal-796529634-line-16">
    <rect x="0" y="391.9" width="1464" height="24.65"/>
            </clipPath>
<clipPath id="terminal-796529634-line-17">
    <rect x="0" y="416.3" width="1464" height="24.65"/>
            </clipPath>
<clipPath id="terminal-796529634-line-18">
    <rect x="0" y="440.7" width="1464" height="24.65"/>
            </clipPath>
<clipPath id="terminal-796529634-line-19">
    <rect x="0" y="465.1" width="1464" height="24.65"/>
            </clipPath>
<clipPath id="terminal-796529634-line-20">
    <rect x="0" y="489.5" width="1464" height="24.65"/>
            </clipPath>
<clipPath id="terminal-796529634-line-21">
    <rect x="0" y="513.9" width="1464" height="24.65"/>
            </clipPath>
<clipPath id="terminal-796529634-line-22">
    <rect x="0" y="538.3" width="1464" height="24.65"/>
            </clipPath>
<clipPath id="terminal-796529634-line-23">
    <rect x="0" y="562.7" width="1464" height="24.65"/>
            </clipPath>
<clipPath id="terminal-796529634-line-24">
    <rect x="0" y="587.1" width="1464" height="24.65"/>
            </clipPath>
<clipPath id="terminal-796529634-line-25">
    <rect x="0" y="611.5" width="1464" height="24.65"/>
            </clipPath>
<clipPath id="terminal-796529634-line-26">
    <rect x="0" y="635.9" width="1464" height="24.65"/>
            </clipPath>
<clipPath id="terminal-796529634-line-27">
    <rect x="0" y="660.3" width="1464" height="24.65"/>
            </clipPath>
<clipPath id="terminal-796529634-line-28">
    <rect x="0" y="684.7" width="1464" height="24.65"/>
            </clipPath>
<clipPath id="terminal-796529634-line-29">
    <rect x="0" y="709.1" width="1464" height="24.65"/>
            </clipPath>
<clipPath id="terminal-796529634-line-30">
    <rect x="0" y="733.5" width="1464" height="24.65"/>
            </clipPath>
<clipPath id="terminal-796529634-line-31">
    <rect x="0" y="757.9" width="1464" height="24.65"/>
            </clipPath>
<clipPath id="terminal-796529634-line-32">
    <rect x="0" y="782.3" width="1464" height="24.65"/>
            </clipPath>
<clipPath id="terminal-796529634-line-33">
    <rect x="0" y="806.7" width="1464" height="24.65"/>
            </clipPath>
<clipPath id="terminal-796529634-line-34">
    <rect x="0" y="831.1" width="1464" height="24.65"/>
            </clipPath>
<clipPath id="terminal-796529634-line-35">
    <rect x="0" y="855.5" width="1464" height="24.65"/>
            </clipPath>
<clipPath id="terminal-796529634-line-36">
    <rect x="0" y="879.9" width="1464" height="24.65"/>
            </clipPath>
<clipPath id="terminal-796529634-line-37">
    <rect x="0" y="904.3" width="1464" height="24.65"/>
            </clipPath>
<clipPath id="terminal-796529634-line-38">
    <rect x="0" y="928.7" width="1464" height="24.65"/>
            </clipPath>
    </defs>

    <rect fill="#292929" stroke="rgba(255,255,255,0.35)" stroke-width="1" x="1" y="1" width="1480" height="1024" rx="8"/><text class="terminal-796529634-title" fill="#c5c8c6" text-anchor="middle" x="740" y="27">SSL&#160;TUI&#160;Hub</text>
            <g transform="translate(26,22)">
            <circle cx="0" cy="0" r="7" fill="#ff5f57"/>
            <circle cx="22" cy="0" r="7" fill="#febc2e"/>
            <circle cx="44" cy="0" r="7" fill="#28c840"/>
            </g>
        
    <g transform="translate(9, 41)" clip-path="url(#terminal-796529634-clip-terminal)">
    <rect fill="#121212" x="0" y="1.5" width="244" height="24.65" shape-rendering="crispEdges"/><rect fill="#121212" x="244" y="1.5" width="976" height="24.65" shape-rendering="crispEdges"/><rect fill="#121212" x="1220" y="1.5" width="244" height="24.65" shape-rendering="crispEdges"/><rect fill="#121212" x="0" y="25.9" width="244" height="24.65" shape-rendering="crispEdges"/><rect fill="#121212" x="244" y="25.9" width="12.2" height="24.65" shape-rendering="crispEdges"/><rect fill="#121212" x="256.2" y="25.9" width="146.4" height="24.65" shape-rendering="crispEdges"/><rect fill="#121212" x="402.6" y="25.9" width="317.2" height="24.65" shape-rendering="crispEdges"/><rect fill="#121212" x="719.8" y="25.9" width="12.2" height="24.65" shape-rendering="crispEdges"/><rect fill="#121212" x="732" y="25.9" width="85.4" height="24.65" shape-rendering="crispEdges"/><rect fill="#121212" x="817.4" y="25.9" width="390.4" height="24.65" shape-rendering="crispEdges"/><rect fill="#121212" x="1207.8" y="25.9" width="12.2" height="24.65" shape-rendering="crispEdges"/><rect fill="#121212" x="1220" y="25.9" width="244" height="24.65" shape-rendering="crispEdges"/><rect fill="#121212" x="0" y="50.3" width="244" height="24.65" shape-rendering="crispEdges"/><rect fill="#121212" x="244" y="50.3" width="12.2" height="24.65" shape-rendering="crispEdges"/><rect fill="#0178d4" x="256.2" y="50.3" width="305" height="24.65" shape-rendering="crispEdges"/><rect fill="#0178d4" x="561.2" y="50.3" width="158.6" height="24.65" shape-rendering="crispEdges"/><rect fill="#121212" x="719.8" y="50.3" width="12.2" height="24.65" shape-rendering="crispEdges"/><rect fill="#121212" x="732" y="50.3" width="244" height="24.65" shape-rendering="crispEdges"/><rect fill="#121212" x="976" y="50.3" width="231.8" height="24.65" shape-rendering="crispEdges"/><rect fill="#121212" x="1207.8" y="50.3" width="12.2" height="24.65" shape-rendering="crispEdges"/><rect fill="#121212" x="1220" y="50.3" width="244" height="24.65" shape-rendering="crispEdges"/><rect fill="#121212" x="0" y="74.7" width="244" height="24.65" shape-rendering="crispEdges"/><rect fill="#121212" x="244" y="74.7" width="12.2" height="24.65" shape-rendering="crispEdges"/><rect fill="#272727" x="256.2" y="74.7" width="463.6" height="24.65" shape-rendering="crispEdges"/><rect fill="#121212" x="719.8" y="74.7" width="12.2" height="24.65" shape-rendering="crispEdges"/><rect fill="#121212" x="732" y="74.7" width="475.8" height="24.65" shape-rendering="crispEdges"/><rect fill="#121212" x="1207.8" y="74.7" width="12.2" height="24.65" shape-rendering="crispEdges"/><rect fill="#121212" x="1220" y="74.7" width="244" height="24.65" shape-rendering="crispEdges"/><rect fill="#121212" x="0" y="99.1" width="244" height="24.65" shape-rendering="crispEdges"/><rect fill="#121212" x="244" y="99.1" width="12.2" height="24.65" shape-rendering="crispEdges"/><rect fill="#272727" x="256.2" y="99.1" width="463.6" height="24.65" shape-rendering="crispEdges"/><rect fill="#121212" x="719.8" y="99.1" width="12.2" height="24.65" shape-rendering="crispEdges"/><rect fill="#121212" x="732" y="99.1" width="475.8" height="24.65" shape-rendering="crispEdges"/><rect fill="#121212" x="1207.8" y="99.1" width="12.2" height="24.65" shape-rendering="crispEdges"/><rect fill="#121212" x="1220" y="99.1" width="244" height="24.65" shape-rendering="crispEdges"/><rect fill="#121212" x="0" y="123.5" width="244" height="24.65" shape-rendering="crispEdges"/><rect fill="#121212" x="244" y="123.5" width="12.2" height="24.65" shape-rendering="crispEdges"/><rect fill="#272727" x="256.2" y="123.5" width="463.6" height="24.65" shape-rendering="crispEdges"/><rect fill="#121212" x="719.8" y="123.5" width="12.2" height="24.65" shape-rendering="crispEdges"/><rect fill="#121212" x="732" y="123.5" width="475.8" height="24.65" shape-rendering="crispEdges"/><rect fill="#121212" x="1207.8" y="123.5" width="12.2" height="24.65" shape-rendering="crispEdges"/><rect fill="#121212" x="1220" y="123.5" width="244" height="24.65" shape-rendering="crispEdges"/><rect fill="#121212" x="0" y="147.9" width="244" height="24.65" shape-rendering="crispEdges"/><rect fill="#121212" x="244" y="147.9" width="12.2" height="24.65" shape-rendering="crispEdges"/><rect fill="#272727" x="256.2" y="147.9" width="463.6" height="24.65" shape-rendering="crispEdges"/><rect fill="#121212" x="719.8" y="147.9" width="12.2" height="24.65" shape-rendering="crispEdges"/><rect fill="#121212" x="732" y="147.9" width="475.8" height="24.65" shape-rendering="crispEdges"/><rect fill="#121212" x="1207.8" y="147.9" width="12.2" height="24.65" shape-rendering="crispEdges"/><rect fill="#121212" x="1220" y="147.9" width="244" height="24.65" shape-rendering="crispEdges"/><rect fill="#121212" x="0" y="172.3" width="244" height="24.65" shape-rendering="crispEdges"/><rect fill="#121212" x="244" y="172.3" width="12.2" height="24.65" shape-rendering="crispEdges"/><rect fill="#272727" x="256.2" y="172.3" width="463.6" height="24.65" shape-rendering="crispEdges"/><rect fill="#121212" x="719.8" y="172.3" width="12.2" height="24.65" shape-rendering="crispEdges"/><rect fill="#121212" x="732" y="172.3" width="475.8" height="24.65" shape-rendering="crispEdges"/><rect fill="#121212" x="1207.8" y="172.3" width="12.2" height="24.65" shape-rendering="crispEdges"/><rect fill="#121212" x="1220" y="172.3" width="244" height="24.65" shape-rendering="crispEdges"/><rect fill="#121212" x="0" y="196.7" width="244" height="24.65" shape-rendering="crispEdges"/><rect fill="#121212" x="244" y="196.7" width="12.2" height="24.65" shape-rendering="crispEdges"/><rect fill="#272727" x="256.2" y="196.7" width="463.6" height="24.65" shape-rendering="crispEdges"/><rect fill="#121212" x="719.8" y="196.7" width="12.2" height="24.65" shape-rendering="crispEdges"/><rect fill="#121212" x="732" y="196.7" width="475.8" height="24.65" shape-rendering="crispEdges"/><rect fill="#121212" x="1207.8" y="196.7" width="12.2" height="24.65" shape-rendering="crispEdges"/><rect fill="#121212" x="1220" y="196.7" width="244" height="24.65" shape-rendering="crispEdges"/><rect fill="#121212" x="0" y="221.1" width="244" height="24.65" shape-rendering="crispEdges"/><rect fill="#121212" x="244" y="221.1" width="12.2" height="24.65" shape-rendering="crispEdges"/><rect fill="#272727" x="256.2" y="221.1" width="463.6" height="24.65" shape-rendering="crispEdges"/><rect fill="#121212" x="719.8" y="221.1" width="12.2" height="24.65" shape-rendering="crispEdges"/><rect fill="#121212" x="732" y="221.1" width="475.8" height="24.65" shape-rendering="crispEdges"/><rect fill="#121212" x="1207.8" y="221.1" width="12.2" height="24.65" shape-rendering="crispEdges"/><rect fill="#121212" x="1220" y="221.1" width="244" height="24.65" shape-rendering="crispEdges"/><rect fill="#121212" x="0" y="245.5" width="244" height="24.65" shape-rendering="crispEdges"/><rect fill="#121212" x="244" y="245.5" width="12.2" height="24.65" shape-rendering="crispEdges"/><rect fill="#272727" x="256.2" y="245.5" width="463.6" height="24.65" shape-rendering="crispEdges"/><rect fill="#121212" x="719.8" y="245.5" width="12.2" height="24.65" shape-rendering="crispEdges"/><rect fill="#121212" x="732" y="245.5" width="475.8" height="24.65" shape-rendering="crispEdges"/><rect fill="#121212" x="1207.8" y="245.5" width="12.2" height="24.65" shape-rendering="crispEdges"/><rect fill="#121212" x="1220" y="245.5" width="244" height="24.65" shape-rendering="crispEdges"/><rect fill="#121212" x="0" y="269.9" width="244" height="24.65" shape-rendering="crispEdges"/><rect fill="#121212" x="244" y="269.9" width="12.2" height="24.65" shape-rendering="crispEdges"/><rect fill="#272727" x="256.2" y="269.9" width="463.6" height="24.65" shape-rendering="crispEdges"/><rect fill="#121212" x="719.8" y="269.9" width="12.2" height="24.65" shape-rendering="crispEdges"/><rect fill="#121212" x="732" y="269.9" width="475.8" height="24.65" shape-rendering="crispEdges"/><rect fill="#121212" x="1207.8" y="269.9" width="12.2" height="24.65" shape-rendering="crispEdges"/><rect fill="#121212" x="1220" y="269.9" width="244" height="24.65" shape-rendering="crispEdges"/><rect fill="#121212" x="0" y="294.3" width="244" height="24.65" shape-rendering="crispEdges"/><rect fill="#121212" x="244" y="294.3" width="12.2" height="24.65" shape-rendering="crispEdges"/><rect fill="#272727" x="256.2" y="294.3" width="463.6" height="24.65" shape-rendering="crispEdges"/><rect fill="#121212" x="719.8" y="294.3" width="12.2" height="24.65" shape-rendering="crispEdges"/><rect fill="#121212" x="732" y="294.3" width="475.8" height="24.65" shape-rendering="crispEdges"/><rect fill="#121212" x="1207.8" y="294.3" width="12.2" height="24.65" shape-rendering="crispEdges"/><rect fill="#121212" x="1220" y="294.3" width="244" height="24.65" shape-rendering="crispEdges"/><rect fill="#121212" x="0" y="318.7" width="244" height="24.65" shape-rendering="crispEdges"/><rect fill="#121212" x="244" y="318.7" width="12.2" height="24.65" shape-rendering="crispEdges"/><rect fill="#272727" x="256.2" y="318.7" width="463.6" height="24.65" shape-rendering="crispEdges"/><rect fill="#121212" x="719.8" y="318.7" width="12.2" height="24.65" shape-rendering="crispEdges"/><rect fill="#121212" x="732" y="318.7" width="475.8" height="24.65" shape-rendering="crispEdges"/><rect fill="#121212" x="1207.8" y="318.7" width="12.2" height="24.65" shape-rendering="crispEdges"/><rect fill="#121212" x="1220" y="318.7" width="244" height="24.65" shape-rendering="crispEdges"/><rect fill="#121212" x="0" y="343.1" width="244" height="24.65" shape-rendering="crispEdges"/><rect fill="#121212" x="244" y="343.1" width="12.2" height="24.65" shape-rendering="crispEdges"/><rect fill="#272727" x="256.2" y="343.1" width="463.6" height="24.65" shape-rendering="crispEdges"/><rect fill="#121212" x="719.8" y="343.1" width="12.2" height="24.65" shape-rendering="crispEdges"/><rect fill="#121212" x="732" y="343.1" width="475.8" height="24.65" shape-rendering="crispEdges"/><rect fill="#121212" x="1207.8" y="343.1" width="12.2" height="24.65" shape-rendering="crispEdges"/><rect fill="#121212" x="1220" y="343.1" width="244" height="24.65" shape-rendering="crispEdges"/><rect fill="#121212" x="0" y="367.5" width="244" height="24.65" shape-rendering="crispEdges"/><rect fill="#121212" x="244" y="367.5" width="12.2" height="24.65" shape-rendering="crispEdges"/><rect fill="#272727" x="256.2" y="367.5" width="463.6" height="24.65" shape-rendering="crispEdges"/><rect fill="#121212" x="719.8" y="367.5" width="12.2" height="24.65" shape-rendering="crispEdges"/><rect fill="#121212" x="732" y="367.5" width="475.8" height="24.65" shape-rendering="crispEdges"/><rect fill="#121212" x="1207.8" y="367.5" width="12.2" height="24.65" shape-rendering="crispEdges"/><rect fill="#121212" x="1220" y="367.5" width="244" height="24.65" shape-rendering="crispEdges"/><rect fill="#121212" x="0" y="391.9" width="244" height="24.65" shape-rendering="crispEdges"/><rect fill="#121212" x="244" y="391.9" width="12.2" height="24.65" shape-rendering="crispEdges"/><rect fill="#272727" x="256.2" y="391.9" width="463.6" height="24.65" shape-rendering="crispEdges"/><rect fill="#121212" x="719.8" y="391.9" width="12.2" height="24.65" shape-rendering="crispEdges"/><rect fill="#121212" x="732" y="391.9" width="475.8" height="24.65" shape-rendering="crispEdges"/><rect fill="#121212" x="1207.8" y="391.9" width="12.2" height="24.65" shape-rendering="crispEdges"/><rect fill="#121212" x="1220" y="391.9" width="244" height="24.65" shape-rendering="crispEdges"/><rect fill="#121212" x="0" y="416.3" width="244" height="24.65" shape-rendering="crispEdges"/><rect fill="#121212" x="244" y="416.3" width="12.2" height="24.65" shape-rendering="crispEdges"/><rect fill="#272727" x="256.2" y="416.3" width="463.6" height="24.65" shape-rendering="crispEdges"/><rect fill="#121212" x="719.8" y="416.3" width="12.2" height="24.65" shape-rendering="crispEdges"/><rect fill="#121212" x="732" y="416.3" width="475.8" height="24.65" shape-rendering="crispEdges"/><rect fill="#121212" x="1207.8" y="416.3" width="12.2" height="24.65" shape-rendering="crispEdges"/><rect fill="#121212" x="1220" y="416.3" width="244" height="24.65" shape-rendering="crispEdges"/><rect fill="#121212" x="0" y="440.7" width="244" height="24.65" shape-rendering="crispEdges"/><rect fill="#121212" x="244" y="440.7" width="12.2" height="24.65" shape-rendering="crispEdges"/><rect fill="#272727" x="256.2" y="440.7" width="463.6" height="24.65" shape-rendering="crispEdges"/><rect fill="#121212" x="719.8" y="440.7" width="12.2" height="24.65" shape-rendering="crispEdges"/><rect fill="#121212" x="732" y="440.7" width="475.8" height="24.65" shape-rendering="crispEdges"/><rect fill="#121212" x="1207.8" y="440.7" width="12.2" height="24.65" shape-rendering="crispEdges"/><rect fill="#121212" x="1220" y="440.7" width="244" height="24.65" shape-rendering="crispEdges"/><rect fill="#121212" x="0" y="465.1" width="244" height="24.65" shape-rendering="crispEdges"/><rect fill="#121212" x="244" y="465.1" width="12.2" height="24.65" shape-rendering="crispEdges"/><rect fill="#272727" x="256.2" y="465.1" width="463.6" height="24.65" shape-rendering="crispEdges"/><rect fill="#121212" x="719.8" y="465.1" width="12.2" height="24.65" shape-rendering="crispEdges"/><rect fill="#121212" x="732" y="465.1" width="475.8" height="24.65" shape-rendering="crispEdges"/><rect fill="#121212" x="1207.8" y="465.1" width="12.2" height="24.65" shape-rendering="crispEdges"/><rect fill="#121212" x="1220" y="465.1" width="244" height="24.65" shape-rendering="crispEdges"/><rect fill="#121212" x="0" y="489.5" width="244" height="24.65" shape-rendering="crispEdges"/><rect fill="#121212" x="244" y="489.5" width="12.2" height="24.65" shape-rendering="crispEdges"/><rect fill="#272727" x="256.2" y="489.5" width="463.6" height="24.65" shape-rendering="crispEdges"/><rect fill="#121212" x="719.8" y="489.5" width="12.2" height="24.65" shape-rendering="crispEdges"/><rect fill="#121212" x="732" y="489.5" width="475.8" height="24.65" shape-rendering="crispEdges"/><rect fill="#121212" x="1207.8" y="489.5" width="12.2" height="24.65" shape-rendering="crispEdges"/><rect fill="#121212" x="1220" y="489.5" width="244" height="24.65" shape-rendering="crispEdges"/><rect fill="#121212" x="0" y="513.9" width="244" height="24.65" shape-rendering="crispEdges"/><rect fill="#121212" x="244" y="513.9" width="12.2" height="24.65" shape-rendering="crispEdges"/><rect fill="#272727" x="256.2" y="513.9" width="463.6" height="24.65" shape-rendering="crispEdges"/><rect fill="#121212" x="719.8" y="513.9" width="12.2" height="24.65" shape-rendering="crispEdges"/><rect fill="#121212" x="732" y="513.9" width="475.8" height="24.65" shape-rendering="crispEdges"/><rect fill="#121212" x="1207.8" y="513.9" width="12.2" height="24.65" shape-rendering="crispEdges"/><rect fill="#121212" x="1220" y="513.9" width="244" height="24.65" shape-rendering="crispEdges"/><rect fill="#121212" x="0" y="538.3" width="244" height="24.65" shape-rendering="crispEdges"/><rect fill="#121212" x="244" y="538.3" width="12.2" height="24.65" shape-rendering="crispEdges"/><rect fill="#272727" x="256.2" y="538.3" width="463.6" height="24.65" shape-rendering="crispEdges"/><rect fill="#121212" x="719.8" y="538.3" width="12.2" height="24.65" shape-rendering="crispEdges"/><rect fill="#121212" x="732" y="538.3" width="475.8" height="24.65" shape-rendering="crispEdges"/><rect fill="#121212" x="1207.8" y="538.3" width="12.2" height="24.65" shape-rendering="crispEdges"/><rect fill="#121212" x="1220" y="538.3" width="244" height="24.65" shape-rendering="crispEdges"/><rect fill="#121212" x="0" y="562.7" width="244" height="24.65" shape-rendering="crispEdges"/><rect fill="#121212" x="244" y="562.7" width="12.2" height="24.65" shape-rendering="crispEdges"/><rect fill="#272727" x="256.2" y="562.7" width="463.6" height="24.65" shape-rendering="crispEdges"/><rect fill="#121212" x="719.8" y="562.7" width="12.2" height="24.65" shape-rendering="crispEdges"/><rect fill="#121212" x="732" y="562.7" width="475.8" height="24.65" shape-rendering="crispEdges"/><rect fill="#121212" x="1207.8" y="562.7" width="12.2" height="24.65" shape-rendering="crispEdges"/><rect fill="#121212" x="1220" y="562.7" width="244" height="24.65" shape-rendering="crispEdges"/><rect fill="#121212" x="0" y="587.1" width="244" height="24.65" shape-rendering="crispEdges"/><rect fill="#121212" x="244" y="587.1" width="12.2" height="24.65" shape-rendering="crispEdges"/><rect fill="#272727" x="256.2" y="587.1" width="463.6" height="24.65" shape-rendering="crispEdges"/><rect fill="#121212" x="719.8" y="587.1" width="12.2" height="24.65" shape-rendering="crispEdges"/><rect fill="#121212" x="732" y="587.1" width="475.8" height="24.65" shape-rendering="crispEdges"/><rect fill="#121212" x="1207.8" y="587.1" width="12.2" height="24.65" shape-rendering="crispEdges"/><rect fill="#121212" x="1220" y="587.1" width="244" height="24.65" shape-rendering="crispEdges"/><rect fill="#121212" x="0" y="611.5" width="244" height="24.65" shape-rendering="crispEdges"/><rect fill="#121212" x="244" y="611.5" width="12.2" height="24.65" shape-rendering="crispEdges"/><rect fill="#272727" x="256.2" y="611.5" width="463.6" height="24.65" shape-rendering="crispEdges"/><rect fill="#121212" x="719.8" y="611.5" width="12.2" height="24.65" shape-rendering="crispEdges"/><rect fill="#121212" x="732" y="611.5" width="475.8" height="24.65" shape-rendering="crispEdges"/><rect fill="#121212" x="1207.8" y="611.5" width="12.2" height="24.65" shape-rendering="crispEdges"/><rect fill="#121212" x="1220" y="611.5" width="244" height="24.65" shape-rendering="crispEdges"/><rect fill="#121212" x="0" y="635.9" width="244" height="24.65" shape-rendering="crispEdges"/><rect fill="#121212" x="244" y="635.9" width="12.2" height="24.65" shape-rendering="crispEdges"/><rect fill="#272727" x="256.2" y="635.9" width="463.6" height="24.65" shape-rendering="crispEdges"/><rect fill="#121212" x="719.8" y="635.9" width="12.2" height="24.65" shape-rendering="crispEdges"/><rect fill="#121212" x="732" y="635.9" width="475.8" height="24.65" shape-rendering="crispEdges"/><rect fill="#121212" x="1207.8" y="635.9" width="12.2" height="24.65" shape-rendering="crispEdges"/><rect fill="#121212" x="1220" y="635.9" width="244" height="24.65" shape-rendering="crispEdges"/><rect fill="#121212" x="0" y="660.3" width="244" height="24.65" shape-rendering="crispEdges"/><rect fill="#121212" x="244" y="660.3" width="12.2" height="24.65" shape-rendering="crispEdges"/><rect fill="#272727" x="256.2" y="660.3" width="463.6" height="24.65" shape-rendering="crispEdges"/><rect fill="#121212" x="719.8" y="660.3" width="12.2" height="24.65" shape-rendering="crispEdges"/><rect fill="#121212" x="732" y="660.3" width="475.8" height="24.65" shape-rendering="crispEdges"/><rect fill="#121212" x="1207.8" y="660.3" width="12.2" height="24.65" shape-rendering="crispEdges"/><rect fill="#121212" x="1220" y="660.3" width="244" height="24.65" shape-rendering="crispEdges"/><rect fill="#121212" x="0" y="684.7" width="244" height="24.65" shape-rendering="crispEdges"/><rect fill="#121212" x="244" y="684.7" width="12.2" height="24.65" shape-rendering="crispEdges"/><rect fill="#272727" x="256.2" y="684.7" width="463.6" height="24.65" shape-rendering="crispEdges"/><rect fill="#121212" x="719.8" y="684.7" width="12.2" height="24.65" shape-rendering="crispEdges"/><rect fill="#121212" x="732" y="684.7" width="475.8" height="24.65" shape-rendering="crispEdges"/><rect fill="#121212" x="1207.8" y="684.7" width="12.2" height="24.65" shape-rendering="crispEdges"/><rect fill="#121212" x="1220" y="684.7" width="244" height="24.65" shape-rendering="crispEdges"/><rect fill="#121212" x="0" y="709.1" width="244" height="24.65" shape-rendering="crispEdges"/><rect fill="#121212" x="244" y="709.1" width="12.2" height="24.65" shape-rendering="crispEdges"/><rect fill="#272727" x="256.2" y="709.1" width="463.6" height="24.65" shape-rendering="crispEdges"/><rect fill="#121212" x="719.8" y="709.1" width="12.2" height="24.65" shape-rendering="crispEdges"/><rect fill="#121212" x="732" y="709.1" width="475.8" height="24.65" shape-rendering="crispEdges"/><rect fill="#121212" x="1207.8" y="709.1" width="12.2" height="24.65" shape-rendering="crispEdges"/><rect fill="#121212" x="1220" y="709.1" width="244" height="24.65" shape-rendering="crispEdges"/><rect fill="#121212" x="0" y="733.5" width="244" height="24.65" shape-rendering="crispEdges"/><rect fill="#121212" x="244" y="733.5" width="12.2" height="24.65" shape-rendering="crispEdges"/><rect fill="#272727" x="256.2" y="733.5" width="463.6" height="24.65" shape-rendering="crispEdges"/><rect fill="#121212" x="719.8" y="733.5" width="12.2" height="24.65" shape-rendering="crispEdges"/><rect fill="#121212" x="732" y="733.5" width="475.8" height="24.65" shape-rendering="crispEdges"/><rect fill="#121212" x="1207.8" y="733.5" width="12.2" height="24.65" shape-rendering="crispEdges"/><rect fill="#121212" x="1220" y="733.5" width="244" height="24.65" shape-rendering="crispEdges"/><rect fill="#121212" x="0" y="757.9" width="244" height="24.65" shape-rendering="crispEdges"/><rect fill="#121212" x="244" y="757.9" width="12.2" height="24.65" shape-rendering="crispEdges"/><rect fill="#272727" x="256.2" y="757.9" width="463.6" height="24.65" shape-rendering="crispEdges"/><rect fill="#121212" x="719.8" y="757.9" width="12.2" height="24.65" shape-rendering="crispEdges"/><rect fill="#121212" x="732" y="757.9" width="475.8" height="24.65" shape-rendering="crispEdges"/><rect fill="#121212" x="1207.8" y="757.9" width="12.2" height="24.65" shape-rendering="crispEdges"/><rect fill="#121212" x="1220" y="757.9" width="244" height="24.65" shape-rendering="crispEdges"/><rect fill="#121212" x="0" y="782.3" width="244" height="24.65" shape-rendering="crispEdges"/><rect fill="#121212" x="244" y="782.3" width="12.2" height="24.65" shape-rendering="crispEdges"/><rect fill="#272727" x="256.2" y="782.3" width="463.6" height="24.65" shape-rendering="crispEdges"/><rect fill="#121212" x="719.8" y="782.3" width="12.2" height="24.65" shape-rendering="crispEdges"/><rect fill="#121212" x="732" y="782.3" width="475.8" height="24.65" shape-rendering="crispEdges"/><rect fill="#121212" x="1207.8" y="782.3" width="12.2" height="24.65" shape-rendering="crispEdges"/><rect fill="#121212" x="1220" y="782.3" width="244" height="24.65" shape-rendering="crispEdges"/><rect fill="#121212" x="0" y="806.7" width="244" height="24.65" shape-rendering="crispEdges"/><rect fill="#121212" x="244" y="806.7" width="12.2" height="24.65" shape-rendering="crispEdges"/><rect fill="#272727" x="256.2" y="806.7" width="463.6" height="24.65" shape-rendering="crispEdges"/><rect fill="#121212" x="719.8" y="806.7" width="12.2" height="24.65" shape-rendering="crispEdges"/><rect fill="#121212" x="732" y="806.7" width="475.8" height="24.65" shape-rendering="crispEdges"/><rect fill="#121212" x="1207.8" y="806.7" width="12.2" height="24.65" shape-rendering="crispEdges"/><rect fill="#121212" x="1220" y="806.7" width="244" height="24.65" shape-rendering="crispEdges"/><rect fill="#121212" x="0" y="831.1" width="244" height="24.65" shape-rendering="crispEdges"/><rect fill="#121212" x="244" y="831.1" width="12.2" height="24.65" shape-rendering="crispEdges"/><rect fill="#272727" x="256.2" y="831.1" width="463.6" height="24.65" shape-rendering="crispEdges"/><rect fill="#121212" x="719.8" y="831.1" width="12.2" height="24.65" shape-rendering="crispEdges"/><rect fill="#121212" x="732" y="831.1" width="475.8" height="24.65" shape-rendering="crispEdges"/><rect fill="#121212" x="1207.8" y="831.1" width="12.2" height="24.65" shape-rendering="crispEdges"/><rect fill="#121212" x="1220" y="831.1" width="244" height="24.65" shape-rendering="crispEdges"/><rect fill="#121212" x="0" y="855.5" width="244" height="24.65" shape-rendering="crispEdges"/><rect fill="#121212" x="244" y="855.5" width="12.2" height="24.65" shape-rendering="crispEdges"/><rect fill="#272727" x="256.2" y="855.5" width="463.6" height="24.65" shape-rendering="crispEdges"/><rect fill="#121212" x="719.8" y="855.5" width="12.2" height="24.65" shape-rendering="crispEdges"/><rect fill="#121212" x="732" y="855.5" width="475.8" height="24.65" shape-rendering="crispEdges"/><rect fill="#121212" x="1207.8" y="855.5" width="12.2" height="24.65" shape-rendering="crispEdges"/><rect fill="#121212" x="1220" y="855.5" width="244" height="24.65" shape-rendering="crispEdges"/><rect fill="#121212" x="0" y="879.9" width="244" height="24.65" shape-rendering="crispEdges"/><rect fill="#121212" x="244" y="879.9" width="12.2" height="24.65" shape-rendering="crispEdges"/><rect fill="#1e1e1e" x="256.2" y="879.9" width="463.6" height="24.65" shape-rendering="crispEdges"/><rect fill="#121212" x="719.8" y="879.9" width="12.2" height="24.65" shape-rendering="crispEdges"/><rect fill="#121212" x="732" y="879.9" width="475.8" height="24.65" shape-rendering="crispEdges"/><rect fill="#121212" x="1207.8" y="879.9" width="12.2" height="24.65" shape-rendering="crispEdges"/><rect fill="#121212" x="1220" y="879.9" width="244" height="24.65" shape-rendering="crispEdges"/><rect fill="#121212" x="0" y="904.3" width="244" height="24.65" shape-rendering="crispEdges"/><rect fill="#121212" x="244" y="904.3" width="12.2" height="24.65" shape-rendering="crispEdges"/><rect fill="#1e1e1e" x="256.2" y="904.3" width="170.8" height="24.65" shape-rendering="crispEdges"/><rect fill="#1e1e1e" x="427" y="904.3" width="109.8" height="24.65" shape-rendering="crispEdges"/><rect fill="#1e1e1e" x="536.8" y="904.3" width="183" height="24.65" shape-rendering="crispEdges"/><rect fill="#121212" x="719.8" y="904.3" width="12.2" height="24.65" shape-rendering="crispEdges"/><rect fill="#121212" x="732" y="904.3" width="475.8" height="24.65" shape-rendering="crispEdges"/><rect fill="#121212" x="1207.8" y="904.3" width="12.2" height="24.65" shape-rendering="crispEdges"/><rect fill="#121212" x="1220" y="904.3" width="244" height="24.65" shape-rendering="crispEdges"/><rect fill="#121212" x="0" y="928.7" width="244" height="24.65" shape-rendering="crispEdges"/><rect fill="#121212" x="244" y="928.7" width="12.2" height="24.65" shape-rendering="crispEdges"/><rect fill="#1e1e1e" x="256.2" y="928.7" width="463.6" height="24.65" shape-rendering="crispEdges"/><rect fill="#121212" x="719.8" y="928.7" width="12.2" height="24.65" shape-rendering="crispEdges"/><rect fill="#121212" x="732" y="928.7" width="475.8" height="24.65" shape-rendering="crispEdges"/><rect fill="#121212" x="1207.8" y="928.7" width="12.2" height="24.65" shape-rendering="crispEdges"/><rect fill="#121212" x="1220" y="928.7" width="244" height="24.65" shape-rendering="crispEdges"/><rect fill="#121212" x="0" y="953.1" width="244" height="24.65" shape-rendering="crispEdges"/><rect fill="#121212" x="244" y="953.1" width="976" height="24.65" shape-rendering="crispEdges"/><rect fill="#121212" x="1220" y="953.1" width="244" height="24.65" shape-rendering="crispEdges"/>
    <g class="terminal-796529634-matrix">
    <text class="terminal-796529634-r1" x="1464" y="20" textLength="12.2" clip-path="url(#terminal-796529634-line-0)">
</text><text class="terminal-796529634-r2" x="256.2" y="44.4" textLength="146.4" clip-path="url(#terminal-796529634-line-1)">Certificates</text><text class="terminal-796529634-r2" x="732" y="44.4" textLength="85.4" clip-path="url(#terminal-796529634-line-1)">Details</text><text class="terminal-796529634-r1" x="1464" y="44.4" textLength="12.2" clip-path="url(#terminal-796529634-line-1)">
</text><text class="terminal-796529634-r3" x="256.2" y="68.8" textLength="305" clip-path="url(#terminal-796529634-line-2)">demo.domain.net&#160;(demo001)</text><text class="terminal-796529634-r2" x="732" y="68.8" textLength="244" clip-path="url(#terminal-796529634-line-2)">Select&#160;a&#160;certificate</text><text class="terminal-796529634-r1" x="1464" y="68.8" textLength="12.2" clip-path="url(#terminal-796529634-line-2)">
</text><text class="terminal-796529634-r1" x="1464" y="93.2" textLength="12.2" clip-path="url(#terminal-796529634-line-3)">
</text><text class="terminal-796529634-r1" x="1464" y="117.6" textLength="12.2" clip-path="url(#terminal-796529634-line-4)">
</text><text class="terminal-796529634-r1" x="1464" y="142" textLength="12.2" clip-path="url(#terminal-796529634-line-5)">
</text><text class="terminal-796529634-r1" x="1464" y="166.4" textLength="12.2" clip-path="url(#terminal-796529634-line-6)">
</text><text class="terminal-796529634-r1" x="1464" y="190.8" textLength="12.2" clip-path="url(#terminal-796529634-line-7)">
</text><text class="terminal-796529634-r1" x="1464" y="215.2" textLength="12.2" clip-path="url(#terminal-796529634-line-8)">
</text><text class="terminal-796529634-r1" x="1464" y="239.6" textLength="12.2" clip-path="url(#terminal-796529634-line-9)">
</text><text class="terminal-796529634-r1" x="1464" y="264" textLength="12.2" clip-path="url(#terminal-796529634-line-10)">
</text><text class="terminal-796529634-r1" x="1464" y="288.4" textLength="12.2" clip-path="url(#terminal-796529634-line-11)">
</text><text class="terminal-796529634-r1" x="1464" y="312.8" textLength="12.2" clip-path="url(#terminal-796529634-line-12)">
</text><text class="terminal-796529634-r1" x="1464" y="337.2" textLength="12.2" clip-path="url(#terminal-796529634-line-13)">
</text><text class="terminal-796529634-r1" x="1464" y="361.6" textLength="12.2" clip-path="url(#terminal-796529634-line-14)">
</text><text class="terminal-796529634-r1" x="1464" y="386" textLength="12.2" clip-path="url(#terminal-796529634-line-15)">
</text><text class="terminal-796529634-r1" x="1464" y="410.4" textLength="12.2" clip-path="url(#terminal-796529634-line-16)">
</text><text class="terminal-796529634-r1" x="1464" y="434.8" textLength="12.2" clip-path="url(#terminal-796529634-line-17)">
</text><text class="terminal-796529634-r1" x="1464" y="459.2" textLength="12.2" clip-path="url(#terminal-796529634-line-18)">
</text><text class="terminal-796529634-r1" x="1464" y="483.6" textLength="12.2" clip-path="url(#terminal-796529634-line-19)">
</text><text class="terminal-796529634-r1" x="1464" y="508" textLength="12.2" clip-path="url(#terminal-796529634-line-20)">
</text><text class="terminal-796529634-r1" x="1464" y="532.4" textLength="12.2" clip-path="url(#terminal-796529634-line-21)">
</text><text class="terminal-796529634-r1" x="1464" y="556.8" textLength="12.2" clip-path="url(#terminal-796529634-line-22)">
</text><text class="terminal-796529634-r1" x="1464" y="581.2" textLength="12.2" clip-path="url(#terminal-796529634-line-23)">
</text><text class="terminal-796529634-r1" x="1464" y="605.6" textLength="12.2" clip-path="url(#terminal-796529634-line-24)">
</text><text class="terminal-796529634-r1" x="1464" y="630" textLength="12.2" clip-path="url(#terminal-796529634-line-25)">
</text><text class="terminal-796529634-r1" x="1464" y="654.4" textLength="12.2" clip-path="url(#terminal-796529634-line-26)">
</text><text class="terminal-796529634-r1" x="1464" y="678.8" textLength="12.2" clip-path="url(#terminal-796529634-line-27)">
</text><text class="terminal-796529634-r1" x="1464" y="703.2" textLength="12.2" clip-path="url(#terminal-796529634-line-28)">
</text><text class="terminal-796529634-r1" x="1464" y="727.6" textLength="12.2" clip-path="url(#terminal-796529634-line-29)">
</text><text class="terminal-796529634-r1" x="1464" y="752" textLength="12.2" clip-path="url(#terminal-796529634-line-30)">
</text><text class="terminal-796529634-r1" x="1464" y="776.4" textLength="12.2" clip-path="url(#terminal-796529634-line-31)">
</text><text class="terminal-796529634-r1" x="1464" y="800.8" textLength="12.2" clip-path="url(#terminal-796529634-line-32)">
</text><text class="terminal-796529634-r1" x="1464" y="825.2" textLength="12.2" clip-path="url(#terminal-796529634-line-33)">
</text><text class="terminal-796529634-r1" x="1464" y="849.6" textLength="12.2" clip-path="url(#terminal-796529634-line-34)">
</text><text class="terminal-796529634-r1" x="1464" y="874" textLength="12.2" clip-path="url(#terminal-796529634-line-35)">
</text><text class="terminal-796529634-r4" x="256.2" y="898.4" textLength="463.6" clip-path="url(#terminal-796529634-line-36)">▔▔▔▔▔▔▔▔▔▔▔▔▔▔▔▔▔▔▔▔▔▔▔▔▔▔▔▔▔▔▔▔▔▔▔▔▔▔</text><text class="terminal-796529634-r1" x="1464" y="898.4" textLength="12.2" clip-path="url(#terminal-796529634-line-36)">
</text><text class="terminal-796529634-r5" x="427" y="922.8" textLength="109.8" clip-path="url(#terminal-796529634-line-37)">&#160;Refresh&#160;</text><text class="terminal-796529634-r1" x="1464" y="922.8" textLength="12.2" clip-path="url(#terminal-796529634-line-37)">
</text><text class="terminal-796529634-r6" x="256.2" y="947.2" textLength="463.6" clip-path="url(#terminal-796529634-line-38)">▁▁▁▁▁▁▁▁▁▁▁▁▁▁▁▁▁▁▁▁▁▁▁▁▁▁▁▁▁▁▁▁▁▁▁▁▁▁</text><text class="terminal-796529634-r1" x="1464" y="947.2" textLength="12.2" clip-path="url(#terminal-796529634-line-38)">
</text>
    </g>
    </g>
</svg>
